<?xml version="1.0" encoding="utf-8"?><!-- Uploaded to: SVG Repo, www.svgrepo.com, Generator: SVG Repo Mixer Tools -->
<svg width="800px" height="800px" viewBox="0 0 24 24" fill="none" xmlns="http://www.w3.org/2000/svg">
<path d="M3 7C3 4.79086 4.79086 3 7 3H17C19.2091 3 21 4.79086 21 7V17C21 19.2091 19.2091 21 17 21H7C4.79086 21 3 19.2091 3 17V7Z" stroke="#caf0f8" stroke-width="1"/>
<path d="M16.2739 11.1377C16.6644 10.7472 16.6644 10.114 16.2739 9.7235L14.4823 7.9319C14.0918 7.54137 13.4586 7.54138 13.0681 7.9319L8.96106 12.0389L8.34768 15.7477C8.3365 15.8154 8.39516 15.874 8.4628 15.8627L12.1669 15.2448L16.2739 11.1377Z" stroke="#caf0f8" stroke-width="1"/>
</svg>