<svg id="visual" viewBox="0 0 900 600" width="900" height="600" xmlns="http://www.w3.org/2000/svg" xmlns:xlink="http://www.w3.org/1999/xlink" version="1.1"><rect x="0" y="0" width="900" height="600" fill="#6692ff"></rect><defs><linearGradient id="grad1_0" x1="33.3%" y1="0%" x2="100%" y2="100%"><stop offset="20%" stop-color="#f2f2f2" stop-opacity="1"></stop><stop offset="80%" stop-color="#f2f2f2" stop-opacity="1"></stop></linearGradient></defs><defs><linearGradient id="grad1_1" x1="33.3%" y1="0%" x2="100%" y2="100%"><stop offset="20%" stop-color="#f2f2f2" stop-opacity="1"></stop><stop offset="80%" stop-color="#dbdef5" stop-opacity="1"></stop></linearGradient></defs><defs><linearGradient id="grad1_2" x1="33.3%" y1="0%" x2="100%" y2="100%"><stop offset="20%" stop-color="#c2caf8" stop-opacity="1"></stop><stop offset="80%" stop-color="#dbdef5" stop-opacity="1"></stop></linearGradient></defs><defs><linearGradient id="grad1_3" x1="33.3%" y1="0%" x2="100%" y2="100%"><stop offset="20%" stop-color="#c2caf8" stop-opacity="1"></stop><stop offset="80%" stop-color="#a8b7fb" stop-opacity="1"></stop></linearGradient></defs><defs><linearGradient id="grad1_4" x1="33.3%" y1="0%" x2="100%" y2="100%"><stop offset="20%" stop-color="#8aa4fd" stop-opacity="1"></stop><stop offset="80%" stop-color="#a8b7fb" stop-opacity="1"></stop></linearGradient></defs><defs><linearGradient id="grad1_5" x1="33.3%" y1="0%" x2="100%" y2="100%"><stop offset="20%" stop-color="#8aa4fd" stop-opacity="1"></stop><stop offset="80%" stop-color="#6692ff" stop-opacity="1"></stop></linearGradient></defs><defs><linearGradient id="grad2_0" x1="0%" y1="0%" x2="66.7%" y2="100%"><stop offset="20%" stop-color="#f2f2f2" stop-opacity="1"></stop><stop offset="80%" stop-color="#f2f2f2" stop-opacity="1"></stop></linearGradient></defs><defs><linearGradient id="grad2_1" x1="0%" y1="0%" x2="66.7%" y2="100%"><stop offset="20%" stop-color="#dbdef5" stop-opacity="1"></stop><stop offset="80%" stop-color="#f2f2f2" stop-opacity="1"></stop></linearGradient></defs><defs><linearGradient id="grad2_2" x1="0%" y1="0%" x2="66.7%" y2="100%"><stop offset="20%" stop-color="#dbdef5" stop-opacity="1"></stop><stop offset="80%" stop-color="#c2caf8" stop-opacity="1"></stop></linearGradient></defs><defs><linearGradient id="grad2_3" x1="0%" y1="0%" x2="66.7%" y2="100%"><stop offset="20%" stop-color="#a8b7fb" stop-opacity="1"></stop><stop offset="80%" stop-color="#c2caf8" stop-opacity="1"></stop></linearGradient></defs><defs><linearGradient id="grad2_4" x1="0%" y1="0%" x2="66.7%" y2="100%"><stop offset="20%" stop-color="#a8b7fb" stop-opacity="1"></stop><stop offset="80%" stop-color="#8aa4fd" stop-opacity="1"></stop></linearGradient></defs><defs><linearGradient id="grad2_5" x1="0%" y1="0%" x2="66.7%" y2="100%"><stop offset="20%" stop-color="#6692ff" stop-opacity="1"></stop><stop offset="80%" stop-color="#8aa4fd" stop-opacity="1"></stop></linearGradient></defs><g transform="translate(900, 0)"><path d="M0 486.7C-46.7 463.1 -93.4 439.5 -136.3 419.4C-179.2 399.4 -218.3 382.9 -264.5 364.1C-310.7 345.2 -364 323.9 -393.8 286.1C-423.5 248.3 -429.7 193.8 -441.3 143.4C-452.9 92.9 -469.8 46.5 -486.7 0L0 0Z" fill="#799bfe"></path><path d="M0 405.6C-38.9 385.9 -77.8 366.2 -113.6 349.5C-149.3 332.8 -181.9 319.1 -220.4 303.4C-258.9 287.7 -303.4 270 -328.2 238.4C-353 206.9 -358.1 161.5 -367.7 119.5C-377.4 77.4 -391.5 38.7 -405.6 0L0 0Z" fill="#9aadfc"></path><path d="M0 324.5C-31.1 308.7 -62.3 293 -90.9 279.6C-119.5 266.2 -145.5 255.3 -176.3 242.7C-207.1 230.1 -242.7 216 -262.5 190.7C-282.4 165.5 -286.5 129.2 -294.2 95.6C-301.9 62 -313.2 31 -324.5 0L0 0Z" fill="#b6c0fa"></path><path d="M0 243.4C-23.3 231.6 -46.7 219.7 -68.1 209.7C-89.6 199.7 -109.1 191.5 -132.3 182C-155.4 172.6 -182 162 -196.9 143.1C-211.8 124.1 -214.9 96.9 -220.6 71.7C-226.4 46.5 -234.9 23.2 -243.4 0L0 0Z" fill="#cfd4f7"></path><path d="M0 162.2C-15.6 154.4 -31.1 146.5 -45.4 139.8C-59.7 133.1 -72.8 127.6 -88.2 121.4C-103.6 115.1 -121.3 108 -131.3 95.4C-141.2 82.8 -143.2 64.6 -147.1 47.8C-151 31 -156.6 15.5 -162.2 0L0 0Z" fill="#e7e8f4"></path><path d="M0 81.1C-7.8 77.2 -15.6 73.2 -22.7 69.9C-29.9 66.6 -36.4 63.8 -44.1 60.7C-51.8 57.5 -60.7 54 -65.6 47.7C-70.6 41.4 -71.6 32.3 -73.5 23.9C-75.5 15.5 -78.3 7.7 -81.1 0L0 0Z" fill="#f2f2f2"></path></g><g transform="translate(0, 600)"><path d="M0 -486.7C44.9 -458.2 89.9 -429.7 132.9 -409C175.9 -388.2 216.9 -375.1 258 -355.2C299.2 -335.2 340.4 -308.4 377 -273.9C413.6 -239.4 445.4 -197.3 462.9 -150.4C480.4 -103.5 483.6 -51.7 486.7 0L0 0Z" fill="#799bfe"></path><path d="M0 -405.6C37.5 -381.9 74.9 -358.1 110.7 -340.8C146.6 -323.5 180.7 -312.6 215 -296C249.3 -279.3 283.7 -257 314.2 -228.3C344.6 -199.5 371.2 -164.4 385.8 -125.3C400.4 -86.2 403 -43.1 405.6 0L0 0Z" fill="#9aadfc"></path><path d="M0 -324.5C30 -305.5 59.9 -286.5 88.6 -272.6C117.2 -258.8 144.6 -250.1 172 -236.8C199.5 -223.5 227 -205.6 251.3 -182.6C275.7 -159.6 296.9 -131.6 308.6 -100.3C320.3 -69 322.4 -34.5 324.5 0L0 0Z" fill="#b6c0fa"></path><path d="M0 -243.4C22.5 -229.1 44.9 -214.9 66.4 -204.5C87.9 -194.1 108.4 -187.6 129 -177.6C149.6 -167.6 170.2 -154.2 188.5 -137C206.8 -119.7 222.7 -98.7 231.5 -75.2C240.2 -51.7 241.8 -25.9 243.4 0L0 0Z" fill="#cfd4f7"></path><path d="M0 -162.2C15 -152.7 30 -143.2 44.3 -136.3C58.6 -129.4 72.3 -125 86 -118.4C99.7 -111.7 113.5 -102.8 125.7 -91.3C137.9 -79.8 148.5 -65.8 154.3 -50.1C160.1 -34.5 161.2 -17.2 162.2 0L0 0Z" fill="#e7e8f4"></path><path d="M0 -81.1C7.5 -76.4 15 -71.6 22.1 -68.2C29.3 -64.7 36.1 -62.5 43 -59.2C49.9 -55.9 56.7 -51.4 62.8 -45.7C68.9 -39.9 74.2 -32.9 77.2 -25.1C80.1 -17.2 80.6 -8.6 81.1 0L0 0Z" fill="#f2f2f2"></path></g></svg>