<svg id="visual" viewBox="0 0 1800 600" width="1800" height="600" xmlns="http://www.w3.org/2000/svg" xmlns:xlink="http://www.w3.org/1999/xlink" version="1.1"><rect x="0" y="0" width="1800" height="600" fill="#caf0f8"></rect><defs><linearGradient id="grad1_0" x1="66.7%" y1="0%" x2="100%" y2="100%"><stop offset="-10%" stop-color="#3a0ca3" stop-opacity="1"></stop><stop offset="110%" stop-color="#3a0ca3" stop-opacity="1"></stop></linearGradient></defs><defs><linearGradient id="grad1_1" x1="66.7%" y1="0%" x2="100%" y2="100%"><stop offset="-10%" stop-color="#3a0ca3" stop-opacity="1"></stop><stop offset="110%" stop-color="#0048c4" stop-opacity="1"></stop></linearGradient></defs><defs><linearGradient id="grad1_2" x1="66.7%" y1="0%" x2="100%" y2="100%"><stop offset="-10%" stop-color="#006fd8" stop-opacity="1"></stop><stop offset="110%" stop-color="#0048c4" stop-opacity="1"></stop></linearGradient></defs><defs><linearGradient id="grad1_3" x1="66.7%" y1="0%" x2="100%" y2="100%"><stop offset="-10%" stop-color="#006fd8" stop-opacity="1"></stop><stop offset="110%" stop-color="#0093e3" stop-opacity="1"></stop></linearGradient></defs><defs><linearGradient id="grad1_4" x1="66.7%" y1="0%" x2="100%" y2="100%"><stop offset="-10%" stop-color="#45b4e9" stop-opacity="1"></stop><stop offset="110%" stop-color="#0093e3" stop-opacity="1"></stop></linearGradient></defs><defs><linearGradient id="grad1_5" x1="66.7%" y1="0%" x2="100%" y2="100%"><stop offset="-10%" stop-color="#45b4e9" stop-opacity="1"></stop><stop offset="110%" stop-color="#8ad3ee" stop-opacity="1"></stop></linearGradient></defs><defs><linearGradient id="grad1_6" x1="66.7%" y1="0%" x2="100%" y2="100%"><stop offset="-10%" stop-color="#caf0f8" stop-opacity="1"></stop><stop offset="110%" stop-color="#8ad3ee" stop-opacity="1"></stop></linearGradient></defs><defs><linearGradient id="grad2_0" x1="0%" y1="0%" x2="33.3%" y2="100%"><stop offset="-10%" stop-color="#3a0ca3" stop-opacity="1"></stop><stop offset="110%" stop-color="#3a0ca3" stop-opacity="1"></stop></linearGradient></defs><defs><linearGradient id="grad2_1" x1="0%" y1="0%" x2="33.3%" y2="100%"><stop offset="-10%" stop-color="#0048c4" stop-opacity="1"></stop><stop offset="110%" stop-color="#3a0ca3" stop-opacity="1"></stop></linearGradient></defs><defs><linearGradient id="grad2_2" x1="0%" y1="0%" x2="33.3%" y2="100%"><stop offset="-10%" stop-color="#0048c4" stop-opacity="1"></stop><stop offset="110%" stop-color="#006fd8" stop-opacity="1"></stop></linearGradient></defs><defs><linearGradient id="grad2_3" x1="0%" y1="0%" x2="33.3%" y2="100%"><stop offset="-10%" stop-color="#0093e3" stop-opacity="1"></stop><stop offset="110%" stop-color="#006fd8" stop-opacity="1"></stop></linearGradient></defs><defs><linearGradient id="grad2_4" x1="0%" y1="0%" x2="33.3%" y2="100%"><stop offset="-10%" stop-color="#0093e3" stop-opacity="1"></stop><stop offset="110%" stop-color="#45b4e9" stop-opacity="1"></stop></linearGradient></defs><defs><linearGradient id="grad2_5" x1="0%" y1="0%" x2="33.3%" y2="100%"><stop offset="-10%" stop-color="#8ad3ee" stop-opacity="1"></stop><stop offset="110%" stop-color="#45b4e9" stop-opacity="1"></stop></linearGradient></defs><defs><linearGradient id="grad2_6" x1="0%" y1="0%" x2="33.3%" y2="100%"><stop offset="-10%" stop-color="#8ad3ee" stop-opacity="1"></stop><stop offset="110%" stop-color="#caf0f8" stop-opacity="1"></stop></linearGradient></defs><g transform="translate(1800, 0)"><path d="M0 360C-35.5 328 -71 296 -117.5 283.6C-164 271.2 -221.6 278.4 -254.6 254.6C-287.6 230.7 -296 175.8 -309.5 128.2C-323 80.6 -341.5 40.3 -360 0L0 0Z" fill="#aae2f2"></path><path d="M0 308.6C-30.4 281.2 -60.8 253.7 -100.7 243.1C-140.6 232.5 -189.9 238.6 -218.2 218.2C-246.5 197.7 -253.7 150.7 -265.3 109.9C-276.8 69.1 -292.7 34.5 -308.6 0L0 0Z" fill="#69c4eb"></path><path d="M0 257.1C-25.3 234.3 -50.7 211.5 -83.9 202.6C-117.1 193.7 -158.3 198.9 -181.8 181.8C-205.4 164.8 -211.4 125.6 -221.1 91.6C-230.7 57.6 -243.9 28.8 -257.1 0L0 0Z" fill="#06a4e6"></path><path d="M0 205.7C-20.3 187.4 -40.6 169.2 -67.1 162.1C-93.7 155 -126.6 159.1 -145.5 145.5C-164.3 131.8 -169.2 100.5 -176.9 73.3C-184.6 46.1 -195.1 23 -205.7 0L0 0Z" fill="#0081df"></path><path d="M0 154.3C-15.2 140.6 -30.4 126.9 -50.4 121.6C-70.3 116.2 -95 119.3 -109.1 109.1C-123.2 98.9 -126.9 75.3 -132.6 54.9C-138.4 34.5 -146.4 17.3 -154.3 0L0 0Z" fill="#005dcf"></path><path d="M0 102.9C-10.1 93.7 -20.3 84.6 -33.6 81C-46.9 77.5 -63.3 79.5 -72.7 72.7C-82.2 65.9 -84.6 50.2 -88.4 36.6C-92.3 23 -97.6 11.5 -102.9 0L0 0Z" fill="#1d31b5"></path><path d="M0 51.4C-5.1 46.9 -10.1 42.3 -16.8 40.5C-23.4 38.7 -31.7 39.8 -36.4 36.4C-41.1 33 -42.3 25.1 -44.2 18.3C-46.1 11.5 -48.8 5.8 -51.4 0L0 0Z" fill="#3a0ca3"></path></g><g transform="translate(0, 600)"><path d="M0 -360C40 -340.1 80 -320.3 127.1 -306.7C174.1 -293.2 228.3 -286 254.6 -254.6C280.8 -223.1 279 -167.4 291.9 -120.9C304.9 -74.5 332.4 -37.2 360 0L0 0Z" fill="#aae2f2"></path><path d="M0 -308.6C34.3 -291.5 68.5 -274.5 108.9 -262.9C149.3 -251.3 195.7 -245.2 218.2 -218.2C240.7 -191.2 239.2 -143.5 250.2 -103.7C261.3 -63.8 284.9 -31.9 308.6 0L0 0Z" fill="#69c4eb"></path><path d="M0 -257.1C28.6 -242.9 57.1 -228.8 90.8 -219.1C124.4 -209.4 163.1 -204.3 181.8 -181.8C200.6 -159.4 199.3 -119.6 208.5 -86.4C217.8 -53.2 237.4 -26.6 257.1 0L0 0Z" fill="#06a4e6"></path><path d="M0 -205.7C22.8 -194.4 45.7 -183 72.6 -175.3C99.5 -167.5 130.5 -163.4 145.5 -145.5C160.4 -127.5 159.4 -95.7 166.8 -69.1C174.2 -42.5 190 -21.3 205.7 0L0 0Z" fill="#0081df"></path><path d="M0 -154.3C17.1 -145.8 34.3 -137.3 54.5 -131.5C74.6 -125.7 97.9 -122.6 109.1 -109.1C120.3 -95.6 119.6 -71.7 125.1 -51.8C130.7 -31.9 142.5 -16 154.3 0L0 0Z" fill="#005dcf"></path><path d="M0 -102.9C11.4 -97.2 22.8 -91.5 36.3 -87.6C49.8 -83.8 65.2 -81.7 72.7 -72.7C80.2 -63.7 79.7 -47.8 83.4 -34.6C87.1 -21.3 95 -10.6 102.9 0L0 0Z" fill="#1d31b5"></path><path d="M0 -51.4C5.7 -48.6 11.4 -45.8 18.2 -43.8C24.9 -41.9 32.6 -40.9 36.4 -36.4C40.1 -31.9 39.9 -23.9 41.7 -17.3C43.6 -10.6 47.5 -5.3 51.4 0L0 0Z" fill="#3a0ca3"></path></g></svg>