<svg id="visual" viewBox="0 0 1800 600" width="1800" height="600" xmlns="http://www.w3.org/2000/svg" xmlns:xlink="http://www.w3.org/1999/xlink" version="1.1"><rect x="0" y="0" width="1800" height="600" fill="#caf0f8"></rect><path d="M0 342L33.3 337.8C66.7 333.7 133.3 325.3 200 331.7C266.7 338 333.3 359 400 361C466.7 363 533.3 346 600 334C666.7 322 733.3 315 800 312.7C866.7 310.3 933.3 312.7 1000 323.8C1066.7 335 1133.3 355 1200 352.3C1266.7 349.7 1333.3 324.3 1400 322.8C1466.7 321.3 1533.3 343.7 1600 345.8C1666.7 348 1733.3 330 1766.7 321L1800 312L1800 601L1766.7 601C1733.3 601 1666.7 601 1600 601C1533.3 601 1466.7 601 1400 601C1333.3 601 1266.7 601 1200 601C1133.3 601 1066.7 601 1000 601C933.3 601 866.7 601 800 601C733.3 601 666.7 601 600 601C533.3 601 466.7 601 400 601C333.3 601 266.7 601 200 601C133.3 601 66.7 601 33.3 601L0 601Z" fill="#4cc9f0"></path><path d="M0 404L33.3 394.7C66.7 385.3 133.3 366.7 200 358.5C266.7 350.3 333.3 352.7 400 358.7C466.7 364.7 533.3 374.3 600 375.7C666.7 377 733.3 370 800 374.2C866.7 378.3 933.3 393.7 1000 394.2C1066.7 394.7 1133.3 380.3 1200 380.5C1266.7 380.7 1333.3 395.3 1400 392.7C1466.7 390 1533.3 370 1600 362.3C1666.7 354.7 1733.3 359.3 1766.7 361.7L1800 364L1800 601L1766.7 601C1733.3 601 1666.7 601 1600 601C1533.3 601 1466.7 601 1400 601C1333.3 601 1266.7 601 1200 601C1133.3 601 1066.7 601 1000 601C933.3 601 866.7 601 800 601C733.3 601 666.7 601 600 601C533.3 601 466.7 601 400 601C333.3 601 266.7 601 200 601C133.3 601 66.7 601 33.3 601L0 601Z" fill="#00b5f9"></path><path d="M0 444L33.3 447.2C66.7 450.3 133.3 456.7 200 451.2C266.7 445.7 333.3 428.3 400 418.7C466.7 409 533.3 407 600 406.7C666.7 406.3 733.3 407.7 800 411.5C866.7 415.3 933.3 421.7 1000 428C1066.7 434.3 1133.3 440.7 1200 444C1266.7 447.3 1333.3 447.7 1400 440.8C1466.7 434 1533.3 420 1600 419.2C1666.7 418.3 1733.3 430.7 1766.7 436.8L1800 443L1800 601L1766.7 601C1733.3 601 1666.7 601 1600 601C1533.3 601 1466.7 601 1400 601C1333.3 601 1266.7 601 1200 601C1133.3 601 1066.7 601 1000 601C933.3 601 866.7 601 800 601C733.3 601 666.7 601 600 601C533.3 601 466.7 601 400 601C333.3 601 266.7 601 200 601C133.3 601 66.7 601 33.3 601L0 601Z" fill="#009dfd"></path><path d="M0 481L33.3 485.3C66.7 489.7 133.3 498.3 200 501C266.7 503.7 333.3 500.3 400 495C466.7 489.7 533.3 482.3 600 479.8C666.7 477.3 733.3 479.7 800 483C866.7 486.3 933.3 490.7 1000 491C1066.7 491.3 1133.3 487.7 1200 485.7C1266.7 483.7 1333.3 483.3 1400 478.5C1466.7 473.7 1533.3 464.3 1600 470.7C1666.7 477 1733.3 499 1766.7 510L1800 521L1800 601L1766.7 601C1733.3 601 1666.7 601 1600 601C1533.3 601 1466.7 601 1400 601C1333.3 601 1266.7 601 1200 601C1133.3 601 1066.7 601 1000 601C933.3 601 866.7 601 800 601C733.3 601 666.7 601 600 601C533.3 601 466.7 601 400 601C333.3 601 266.7 601 200 601C133.3 601 66.7 601 33.3 601L0 601Z" fill="#0381fa"></path><path d="M0 523L33.3 527.3C66.7 531.7 133.3 540.3 200 547C266.7 553.7 333.3 558.3 400 560.7C466.7 563 533.3 563 600 561.2C666.7 559.3 733.3 555.7 800 553C866.7 550.3 933.3 548.7 1000 544C1066.7 539.3 1133.3 531.7 1200 526.5C1266.7 521.3 1333.3 518.7 1400 519.5C1466.7 520.3 1533.3 524.7 1600 531.8C1666.7 539 1733.3 549 1766.7 554L1800 559L1800 601L1766.7 601C1733.3 601 1666.7 601 1600 601C1533.3 601 1466.7 601 1400 601C1333.3 601 1266.7 601 1200 601C1133.3 601 1066.7 601 1000 601C933.3 601 866.7 601 800 601C733.3 601 666.7 601 600 601C533.3 601 466.7 601 400 601C333.3 601 266.7 601 200 601C133.3 601 66.7 601 33.3 601L0 601Z" fill="#4361ee"></path></svg>