<svg id="visual" viewBox="0 0 1800 600" width="1800" height="600" xmlns="http://www.w3.org/2000/svg" xmlns:xlink="http://www.w3.org/1999/xlink" version="1.1"><rect x="0" y="0" width="1800" height="600" fill="#caf0f8"></rect><path d="M0 225L33.3 235.7C66.7 246.3 133.3 267.7 200 269.7C266.7 271.7 333.3 254.3 400 249C466.7 243.7 533.3 250.3 600 259C666.7 267.7 733.3 278.3 800 281.7C866.7 285 933.3 281 1000 269.8C1066.7 258.7 1133.3 240.3 1200 236.7C1266.7 233 1333.3 244 1400 255.7C1466.7 267.3 1533.3 279.7 1600 282.8C1666.7 286 1733.3 280 1766.7 277L1800 274L1800 0L1766.7 0C1733.3 0 1666.7 0 1600 0C1533.3 0 1466.7 0 1400 0C1333.3 0 1266.7 0 1200 0C1133.3 0 1066.7 0 1000 0C933.3 0 866.7 0 800 0C733.3 0 666.7 0 600 0C533.3 0 466.7 0 400 0C333.3 0 266.7 0 200 0C133.3 0 66.7 0 33.3 0L0 0Z" fill="#4cc9f0"></path><path d="M0 215L33.3 217.3C66.7 219.7 133.3 224.3 200 230.8C266.7 237.3 333.3 245.7 400 237C466.7 228.3 533.3 202.7 600 197C666.7 191.3 733.3 205.7 800 204.3C866.7 203 933.3 186 1000 179.5C1066.7 173 1133.3 177 1200 178.3C1266.7 179.7 1333.3 178.3 1400 190.7C1466.7 203 1533.3 229 1600 238.5C1666.7 248 1733.3 241 1766.7 237.5L1800 234L1800 0L1766.7 0C1733.3 0 1666.7 0 1600 0C1533.3 0 1466.7 0 1400 0C1333.3 0 1266.7 0 1200 0C1133.3 0 1066.7 0 1000 0C933.3 0 866.7 0 800 0C733.3 0 666.7 0 600 0C533.3 0 466.7 0 400 0C333.3 0 266.7 0 200 0C133.3 0 66.7 0 33.3 0L0 0Z" fill="#23a6dc"></path><path d="M0 132L33.3 139.8C66.7 147.7 133.3 163.3 200 165.2C266.7 167 333.3 155 400 150.8C466.7 146.7 533.3 150.3 600 148.7C666.7 147 733.3 140 800 138C866.7 136 933.3 139 1000 147.5C1066.7 156 1133.3 170 1200 174.5C1266.7 179 1333.3 174 1400 170.2C1466.7 166.3 1533.3 163.7 1600 163C1666.7 162.3 1733.3 163.7 1766.7 164.3L1800 165L1800 0L1766.7 0C1733.3 0 1666.7 0 1600 0C1533.3 0 1466.7 0 1400 0C1333.3 0 1266.7 0 1200 0C1133.3 0 1066.7 0 1000 0C933.3 0 866.7 0 800 0C733.3 0 666.7 0 600 0C533.3 0 466.7 0 400 0C333.3 0 266.7 0 200 0C133.3 0 66.7 0 33.3 0L0 0Z" fill="#0083c4"></path><path d="M0 86L33.3 86C66.7 86 133.3 86 200 91.3C266.7 96.7 333.3 107.3 400 108C466.7 108.7 533.3 99.3 600 99.3C666.7 99.3 733.3 108.7 800 114.5C866.7 120.3 933.3 122.7 1000 121.5C1066.7 120.3 1133.3 115.7 1200 117.5C1266.7 119.3 1333.3 127.7 1400 122C1466.7 116.3 1533.3 96.7 1600 89.5C1666.7 82.3 1733.3 87.7 1766.7 90.3L1800 93L1800 0L1766.7 0C1733.3 0 1666.7 0 1600 0C1533.3 0 1466.7 0 1400 0C1333.3 0 1266.7 0 1200 0C1133.3 0 1066.7 0 1000 0C933.3 0 866.7 0 800 0C733.3 0 666.7 0 600 0C533.3 0 466.7 0 400 0C333.3 0 266.7 0 200 0C133.3 0 66.7 0 33.3 0L0 0Z" fill="#0060a9"></path><path d="M0 41L33.3 48.8C66.7 56.7 133.3 72.3 200 75.3C266.7 78.3 333.3 68.7 400 61.2C466.7 53.7 533.3 48.3 600 43.5C666.7 38.7 733.3 34.3 800 42C866.7 49.7 933.3 69.3 1000 71.3C1066.7 73.3 1133.3 57.7 1200 53.3C1266.7 49 1333.3 56 1400 62.5C1466.7 69 1533.3 75 1600 69.8C1666.7 64.7 1733.3 48.3 1766.7 40.2L1800 32L1800 0L1766.7 0C1733.3 0 1666.7 0 1600 0C1533.3 0 1466.7 0 1400 0C1333.3 0 1266.7 0 1200 0C1133.3 0 1066.7 0 1000 0C933.3 0 866.7 0 800 0C733.3 0 666.7 0 600 0C533.3 0 466.7 0 400 0C333.3 0 266.7 0 200 0C133.3 0 66.7 0 33.3 0L0 0Z" fill="#023e8a"></path></svg>