<svg xmlns="http://www.w3.org/2000/svg" version="1.1" xmlns:xlink="http://www.w3.org/1999/xlink" xmlns:svgjs="http://svgjs.dev/svgjs" viewBox="0 0 800 800"><circle r="9.5" cx="415" cy="633" fill="hsl(315, 75%, 70%)" opacity="0.19"></circle><circle r="6.5" cx="158" cy="99" fill="hsl(292, 75%, 70%)" opacity="0.15"></circle><circle r="11.5" cx="622" cy="615" fill="hsl(316, 75%, 70%)" opacity="0.83"></circle><circle r="9.5" cx="79" cy="636" fill="hsl(305, 75%, 70%)" opacity="0.22"></circle><circle r="5" cx="194" cy="783" fill="hsl(283, 75%, 70%)" opacity="0.79"></circle><circle r="11.5" cx="662" cy="576" fill="hsl(315, 75%, 70%)" opacity="0.94"></circle><circle r="5.5" cx="308" cy="670" fill="hsl(289, 75%, 70%)" opacity="0.60"></circle><circle r="6.5" cx="247" cy="37" fill="hsl(319, 75%, 70%)" opacity="0.99"></circle><circle r="12.5" cx="581" cy="727" fill="hsl(319, 75%, 70%)" opacity="0.96"></circle><circle r="7" cx="152" cy="20" fill="hsl(294, 75%, 70%)" opacity="0.20"></circle><circle r="5" cx="270" cy="463" fill="hsl(283, 75%, 70%)" opacity="0.79"></circle><circle r="8.5" cx="63" cy="414" fill="hsl(309, 75%, 70%)" opacity="0.83"></circle><circle r="10" cx="443" cy="551" fill="hsl(319, 75%, 70%)" opacity="0.46"></circle><circle r="9.5" cx="618" cy="542" fill="hsl(316, 75%, 70%)" opacity="0.69"></circle><circle r="9" cx="58" cy="718" fill="hsl(312, 75%, 70%)" opacity="0.78"></circle><circle r="9.5" cx="777" cy="596" fill="hsl(313, 75%, 70%)" opacity="0.97"></circle><circle r="8.5" cx="750" cy="631" fill="hsl(313, 75%, 70%)" opacity="0.55"></circle><circle r="11.5" cx="414" cy="213" fill="hsl(315, 75%, 70%)" opacity="0.67"></circle><circle r="10" cx="673" cy="623" fill="hsl(315, 75%, 70%)" opacity="0.78"></circle><circle r="7.5" cx="80" cy="747" fill="hsl(305, 75%, 70%)" opacity="0.80"></circle><circle r="14" cx="465" cy="64" fill="hsl(336, 75%, 70%)" opacity="0.18"></circle><circle r="8" cx="99" cy="393" fill="hsl(302, 75%, 70%)" opacity="0.80"></circle><circle r="12" cx="515" cy="161" fill="hsl(321, 75%, 70%)" opacity="0.62"></circle><circle r="5.5" cx="249" cy="158" fill="hsl(286, 75%, 70%)" opacity="0.33"></circle><circle r="14.5" cx="507" cy="420" fill="hsl(323, 75%, 70%)" opacity="0.73"></circle><circle r="5" cx="261" cy="192" fill="hsl(282, 75%, 70%)" opacity="0.91"></circle><circle r="9" cx="97" cy="297" fill="hsl(302, 75%, 70%)" opacity="0.76"></circle><circle r="6" cx="174" cy="60" fill="hsl(295, 75%, 70%)" opacity="0.62"></circle><circle r="13.5" cx="488" cy="771" fill="hsl(323, 75%, 70%)" opacity="0.35"></circle><circle r="13.5" cx="391" cy="53" fill="hsl(344, 75%, 70%)" opacity="0.92"></circle><circle r="10" cx="17" cy="146" fill="hsl(317, 75%, 70%)" opacity="0.93"></circle><circle r="14" cx="539" cy="585" fill="hsl(321, 75%, 70%)" opacity="0.40"></circle><circle r="5" cx="184" cy="749" fill="hsl(284, 75%, 70%)" opacity="0.30"></circle><circle r="8.5" cx="83" cy="201" fill="hsl(305, 75%, 70%)" opacity="0.99"></circle><circle r="6.5" cx="15" cy="33" fill="hsl(314, 75%, 70%)" opacity="0.16"></circle><circle r="6.5" cx="327" cy="170" fill="hsl(297, 75%, 70%)" opacity="0.35"></circle><circle r="13.5" cx="517" cy="649" fill="hsl(322, 75%, 70%)" opacity="0.16"></circle><circle r="7" cx="129" cy="462" fill="hsl(293, 75%, 70%)" opacity="0.37"></circle><circle r="10" cx="443" cy="780" fill="hsl(319, 75%, 70%)" opacity="0.63"></circle><circle r="7.5" cx="710" cy="364" fill="hsl(314, 75%, 70%)" opacity="0.26"></circle><circle r="7.5" cx="281" cy="120" fill="hsl(302, 75%, 70%)" opacity="0.97"></circle><circle r="7.5" cx="778" cy="66" fill="hsl(293, 75%, 70%)" opacity="0.49"></circle><circle r="6.5" cx="335" cy="782" fill="hsl(294, 75%, 70%)" opacity="0.59"></circle><circle r="8" cx="783" cy="512" fill="hsl(313, 75%, 70%)" opacity="0.72"></circle><circle r="8.5" cx="669" cy="783" fill="hsl(315, 75%, 70%)" opacity="0.91"></circle><circle r="8.5" cx="397" cy="668" fill="hsl(309, 75%, 70%)" opacity="0.74"></circle><circle r="5.5" cx="274" cy="593" fill="hsl(283, 75%, 70%)" opacity="0.56"></circle><circle r="11" cx="731" cy="203" fill="hsl(314, 75%, 70%)" opacity="0.26"></circle><circle r="11" cx="585" cy="776" fill="hsl(319, 75%, 70%)" opacity="0.12"></circle><circle r="9.5" cx="402" cy="589" fill="hsl(312, 75%, 70%)" opacity="0.46"></circle><circle r="6.5" cx="354" cy="307" fill="hsl(300, 75%, 70%)" opacity="0.78"></circle><circle r="8.5" cx="729" cy="547" fill="hsl(314, 75%, 70%)" opacity="0.63"></circle><circle r="5.5" cx="289" cy="714" fill="hsl(286, 75%, 70%)" opacity="0.38"></circle><circle r="6" cx="354" cy="731" fill="hsl(300, 75%, 70%)" opacity="0.61"></circle><circle r="9.5" cx="19" cy="411" fill="hsl(321, 75%, 70%)" opacity="0.67"></circle><circle r="5.5" cx="201" cy="645" fill="hsl(282, 75%, 70%)" opacity="0.41"></circle><circle r="6.5" cx="76" cy="25" fill="hsl(297, 75%, 70%)" opacity="0.15"></circle><circle r="7.5" cx="759" cy="20" fill="hsl(300, 75%, 70%)" opacity="0.26"></circle><circle r="8" cx="697" cy="425" fill="hsl(314, 75%, 70%)" opacity="0.11"></circle><circle r="11.5" cx="535" cy="111" fill="hsl(322, 75%, 70%)" opacity="0.33"></circle><circle r="8.5" cx="58" cy="376" fill="hsl(312, 75%, 70%)" opacity="0.76"></circle><circle r="9.5" cx="669" cy="140" fill="hsl(304, 75%, 70%)" opacity="0.20"></circle><circle r="10.5" cx="600" cy="672" fill="hsl(317, 75%, 70%)" opacity="0.27"></circle><circle r="9.5" cx="716" cy="150" fill="hsl(303, 75%, 70%)" opacity="0.42"></circle><circle r="9" cx="14" cy="322" fill="hsl(321, 75%, 70%)" opacity="0.77"></circle><circle r="7.5" cx="123" cy="658" fill="hsl(296, 75%, 70%)" opacity="0.75"></circle><circle r="6" cx="167" cy="678" fill="hsl(286, 75%, 70%)" opacity="0.23"></circle><circle r="7" cx="352" cy="501" fill="hsl(300, 75%, 70%)" opacity="0.48"></circle><circle r="4.5" cx="286" cy="753" fill="hsl(285, 75%, 70%)" opacity="0.91"></circle><circle r="9" cx="633" cy="117" fill="hsl(305, 75%, 70%)" opacity="0.21"></circle><circle r="6.5" cx="327" cy="638" fill="hsl(294, 75%, 70%)" opacity="0.19"></circle><circle r="11.5" cx="533" cy="301" fill="hsl(322, 75%, 70%)" opacity="0.91"></circle><circle r="10.5" cx="626" cy="771" fill="hsl(316, 75%, 70%)" opacity="0.17"></circle><circle r="6" cx="269" cy="674" fill="hsl(283, 75%, 70%)" opacity="0.63"></circle><circle r="6.5" cx="206" cy="45" fill="hsl(303, 75%, 70%)" opacity="0.56"></circle><circle r="6" cx="291" cy="162" fill="hsl(293, 75%, 70%)" opacity="0.80"></circle><circle r="10.5" cx="446" cy="602" fill="hsl(319, 75%, 70%)" opacity="0.63"></circle><circle r="6.5" cx="142" cy="575" fill="hsl(290, 75%, 70%)" opacity="0.89"></circle><circle r="10.5" cx="475" cy="157" fill="hsl(323, 75%, 70%)" opacity="0.29"></circle><circle r="15.5" cx="426" cy="23" fill="hsl(347, 75%, 70%)" opacity="0.76"></circle><circle r="11.5" cx="30" cy="621" fill="hsl(318, 75%, 70%)" opacity="0.27"></circle><circle r="6.5" cx="192" cy="16" fill="hsl(303, 75%, 70%)" opacity="0.37"></circle><circle r="6" cx="240" cy="775" fill="hsl(281, 75%, 70%)" opacity="0.32"></circle><circle r="10.5" cx="563" cy="159" fill="hsl(316, 75%, 70%)" opacity="0.96"></circle><circle r="12" cx="22" cy="246" fill="hsl(321, 75%, 70%)" opacity="0.25"></circle><circle r="6" cx="194" cy="333" fill="hsl(283, 75%, 70%)" opacity="0.58"></circle><circle r="10.5" cx="406" cy="131" fill="hsl(321, 75%, 70%)" opacity="0.27"></circle><circle r="14" cx="519" cy="63" fill="hsl(327, 75%, 70%)" opacity="0.14"></circle><circle r="10" cx="547" cy="20" fill="hsl(321, 75%, 70%)" opacity="0.24"></circle><circle r="8.5" cx="698" cy="461" fill="hsl(314, 75%, 70%)" opacity="0.35"></circle><circle r="12.5" cx="407" cy="335" fill="hsl(312, 75%, 70%)" opacity="0.20"></circle><circle r="10.5" cx="36" cy="288" fill="hsl(318, 75%, 70%)" opacity="0.51"></circle><circle r="10" cx="658" cy="313" fill="hsl(315, 75%, 70%)" opacity="0.19"></circle><circle r="6.5" cx="121" cy="360" fill="hsl(296, 75%, 70%)" opacity="0.33"></circle><circle r="9.5" cx="614" cy="76" fill="hsl(306, 75%, 70%)" opacity="0.42"></circle><circle r="10" cx="702" cy="717" fill="hsl(314, 75%, 70%)" opacity="0.68"></circle><circle r="14" cx="462" cy="319" fill="hsl(320, 75%, 70%)" opacity="0.43"></circle><circle r="4.5" cx="282" cy="529" fill="hsl(285, 75%, 70%)" opacity="0.86"></circle><circle r="13" cx="485" cy="21" fill="hsl(337, 75%, 70%)" opacity="0.99"></circle><circle r="9" cx="764" cy="780" fill="hsl(313, 75%, 70%)" opacity="0.11"></circle><circle r="5.5" cx="184" cy="599" fill="hsl(284, 75%, 70%)" opacity="0.24"></circle><circle r="5.5" cx="301" cy="489" fill="hsl(289, 75%, 70%)" opacity="0.23"></circle><circle r="5.5" cx="314" cy="522" fill="hsl(291, 75%, 70%)" opacity="0.81"></circle><circle r="6" cx="183" cy="477" fill="hsl(284, 75%, 70%)" opacity="0.82"></circle><circle r="8.5" cx="745" cy="370" fill="hsl(313, 75%, 70%)" opacity="0.83"></circle><circle r="8.5" cx="85" cy="340" fill="hsl(305, 75%, 70%)" opacity="0.73"></circle><circle r="4" cx="249" cy="491" fill="hsl(281, 75%, 70%)" opacity="0.71"></circle><circle r="9" cx="655" cy="58" fill="hsl(300, 75%, 70%)" opacity="0.27"></circle><circle r="9" cx="60" cy="69" fill="hsl(305, 75%, 70%)" opacity="0.53"></circle><circle r="9.5" cx="775" cy="555" fill="hsl(313, 75%, 70%)" opacity="0.91"></circle><circle r="7" cx="125" cy="122" fill="hsl(294, 75%, 70%)" opacity="0.71"></circle><circle r="10" cx="606" cy="165" fill="hsl(313, 75%, 70%)" opacity="0.15"></circle><circle r="10" cx="667" cy="740" fill="hsl(315, 75%, 70%)" opacity="0.12"></circle><circle r="12" cx="501" cy="216" fill="hsl(323, 75%, 70%)" opacity="0.15"></circle><circle r="5" cx="170" cy="135" fill="hsl(290, 75%, 70%)" opacity="0.24"></circle><circle r="9" cx="769" cy="173" fill="hsl(306, 75%, 70%)" opacity="0.77"></circle><circle r="11" cx="430" cy="275" fill="hsl(317, 75%, 70%)" opacity="0.56"></circle><circle r="11" cx="719" cy="247" fill="hsl(314, 75%, 70%)" opacity="0.56"></circle><circle r="6.5" cx="389" cy="785" fill="hsl(309, 75%, 70%)" opacity="0.12"></circle><circle r="12.5" cx="539" cy="246" fill="hsl(321, 75%, 70%)" opacity="0.94"></circle><circle r="11" cx="19" cy="528" fill="hsl(321, 75%, 70%)" opacity="0.60"></circle><circle r="8.5" cx="34" cy="446" fill="hsl(318, 75%, 70%)" opacity="0.99"></circle><circle r="6" cx="221" cy="384" fill="hsl(281, 75%, 70%)" opacity="0.73"></circle><circle r="8.5" cx="47" cy="334" fill="hsl(315, 75%, 70%)" opacity="0.99"></circle><circle r="8" cx="783" cy="743" fill="hsl(313, 75%, 70%)" opacity="0.80"></circle><circle r="10" cx="378" cy="174" fill="hsl(309, 75%, 70%)" opacity="0.43"></circle><circle r="6" cx="261" cy="309" fill="hsl(282, 75%, 70%)" opacity="0.50"></circle><circle r="7" cx="343" cy="270" fill="hsl(297, 75%, 70%)" opacity="0.93"></circle><circle r="10.5" cx="644" cy="182" fill="hsl(313, 75%, 70%)" opacity="0.20"></circle><circle r="8.5" cx="277" cy="64" fill="hsl(320, 75%, 70%)" opacity="0.50"></circle><circle r="10.5" cx="440" cy="681" fill="hsl(319, 75%, 70%)" opacity="0.93"></circle><circle r="5.5" cx="212" cy="81" fill="hsl(297, 75%, 70%)" opacity="0.37"></circle><circle r="10" cx="18" cy="721" fill="hsl(321, 75%, 70%)" opacity="0.52"></circle><circle r="7" cx="364" cy="698" fill="hsl(303, 75%, 70%)" opacity="0.35"></circle><circle r="5.5" cx="193" cy="706" fill="hsl(283, 75%, 70%)" opacity="0.96"></circle><circle r="8" cx="39" cy="762" fill="hsl(315, 75%, 70%)" opacity="0.20"></circle><circle r="10.5" cx="688" cy="190" fill="hsl(314, 75%, 70%)" opacity="0.26"></circle><circle r="6" cx="146" cy="336" fill="hsl(290, 75%, 70%)" opacity="0.18"></circle><circle r="11" cx="558" cy="680" fill="hsl(321, 75%, 70%)" opacity="0.31"></circle><circle r="5" cx="276" cy="425" fill="hsl(285, 75%, 70%)" opacity="0.87"></circle><circle r="9.5" cx="721" cy="584" fill="hsl(314, 75%, 70%)" opacity="0.91"></circle><circle r="5.5" cx="323" cy="745" fill="hsl(291, 75%, 70%)" opacity="0.86"></circle><circle r="11" cx="542" cy="198" fill="hsl(321, 75%, 70%)" opacity="0.64"></circle><circle r="11.5" cx="387" cy="94" fill="hsl(331, 75%, 70%)" opacity="0.12"></circle><circle r="11" cx="714" cy="771" fill="hsl(314, 75%, 70%)" opacity="0.26"></circle><circle r="7" cx="355" cy="663" fill="hsl(300, 75%, 70%)" opacity="0.52"></circle><circle r="6.5" cx="311" cy="448" fill="hsl(289, 75%, 70%)" opacity="0.21"></circle><circle r="11" cx="570" cy="440" fill="hsl(320, 75%, 70%)" opacity="0.77"></circle><circle r="10" cx="670" cy="230" fill="hsl(315, 75%, 70%)" opacity="0.81"></circle><circle r="9" cx="686" cy="497" fill="hsl(314, 75%, 70%)" opacity="0.49"></circle><circle r="11.5" cx="774" cy="326" fill="hsl(313, 75%, 70%)" opacity="0.59"></circle><circle r="11" cx="73" cy="252" fill="hsl(309, 75%, 70%)" opacity="0.96"></circle><circle r="8.5" cx="397" cy="513" fill="hsl(309, 75%, 70%)" opacity="0.89"></circle><circle r="7" cx="134" cy="411" fill="hsl(293, 75%, 70%)" opacity="0.44"></circle><circle r="8" cx="78" cy="479" fill="hsl(305, 75%, 70%)" opacity="0.66"></circle><circle r="8.5" cx="651" cy="391" fill="hsl(315, 75%, 70%)" opacity="0.26"></circle><circle r="10.5" cx="18" cy="370" fill="hsl(321, 75%, 70%)" opacity="0.88"></circle><circle r="14" cx="446" cy="433" fill="hsl(319, 75%, 70%)" opacity="0.23"></circle><circle r="10.5" cx="393" cy="387" fill="hsl(309, 75%, 70%)" opacity="0.40"></circle><circle r="5.5" cx="283" cy="390" fill="hsl(285, 75%, 70%)" opacity="0.35"></circle><circle r="11" cx="485" cy="548" fill="hsl(322, 75%, 70%)" opacity="0.78"></circle><circle r="8.5" cx="90" cy="441" fill="hsl(302, 75%, 70%)" opacity="0.46"></circle><circle r="6" cx="300" cy="261" fill="hsl(286, 75%, 70%)" opacity="0.70"></circle><circle r="7" cx="171" cy="381" fill="hsl(286, 75%, 70%)" opacity="0.70"></circle><circle r="6" cx="171" cy="547" fill="hsl(286, 75%, 70%)" opacity="0.69"></circle><circle r="6.5" cx="345" cy="202" fill="hsl(297, 75%, 70%)" opacity="0.76"></circle><circle r="10" cx="652" cy="524" fill="hsl(315, 75%, 70%)" opacity="0.26"></circle><circle r="8.5" cx="611" cy="442" fill="hsl(317, 75%, 70%)" opacity="0.39"></circle><circle r="5.5" cx="199" cy="236" fill="hsl(283, 75%, 70%)" opacity="0.37"></circle><circle r="7" cx="335" cy="415" fill="hsl(294, 75%, 70%)" opacity="0.54"></circle><circle r="8.5" cx="689" cy="97" fill="hsl(296, 75%, 70%)" opacity="0.21"></circle><circle r="6" cx="210" cy="189" fill="hsl(282, 75%, 70%)" opacity="0.65"></circle><circle r="5.5" cx="153" cy="301" fill="hsl(288, 75%, 70%)" opacity="0.75"></circle><circle r="8" cx="111" cy="541" fill="hsl(299, 75%, 70%)" opacity="0.94"></circle><circle r="8" cx="406" cy="549" fill="hsl(312, 75%, 70%)" opacity="0.42"></circle><circle r="6.5" cx="137" cy="64" fill="hsl(293, 75%, 70%)" opacity="0.50"></circle><circle r="10" cx="483" cy="708" fill="hsl(322, 75%, 70%)" opacity="0.83"></circle><circle r="9" cx="781" cy="379" fill="hsl(313, 75%, 70%)" opacity="0.27"></circle><circle r="12" cx="491" cy="108" fill="hsl(328, 75%, 70%)" opacity="0.52"></circle><circle r="7.5" cx="692" cy="390" fill="hsl(314, 75%, 70%)" opacity="0.87"></circle><circle r="8.5" cx="731" cy="407" fill="hsl(314, 75%, 70%)" opacity="0.26"></circle><circle r="12" cx="495" cy="278" fill="hsl(323, 75%, 70%)" opacity="0.37"></circle><circle r="5.5" cx="239" cy="228" fill="hsl(281, 75%, 70%)" opacity="0.38"></circle><circle r="9.5" cx="712" cy="626" fill="hsl(314, 75%, 70%)" opacity="0.59"></circle><circle r="8.5" cx="381" cy="237" fill="hsl(306, 75%, 70%)" opacity="0.91"></circle><circle r="6" cx="322" cy="572" fill="hsl(291, 75%, 70%)" opacity="0.40"></circle><circle r="5" cx="223" cy="466" fill="hsl(281, 75%, 70%)" opacity="0.11"></circle><circle r="8" cx="783" cy="644" fill="hsl(313, 75%, 70%)" opacity="0.84"></circle><circle r="9.5" cx="664" cy="270" fill="hsl(315, 75%, 70%)" opacity="0.98"></circle><circle r="9" cx="722" cy="62" fill="hsl(294, 75%, 70%)" opacity="0.11"></circle><circle r="11.5" cx="622" cy="231" fill="hsl(316, 75%, 70%)" opacity="0.94"></circle><circle r="9.5" cx="640" cy="660" fill="hsl(315, 75%, 70%)" opacity="0.33"></circle><circle r="8.5" cx="538" cy="783" fill="hsl(321, 75%, 70%)" opacity="0.93"></circle><circle r="10.5" cx="306" cy="84" fill="hsl(322, 75%, 70%)" opacity="0.47"></circle><circle r="6.5" cx="129" cy="184" fill="hsl(293, 75%, 70%)" opacity="0.94"></circle><circle r="12" cx="461" cy="244" fill="hsl(320, 75%, 70%)" opacity="0.33"></circle><circle r="12" cx="427" cy="83" fill="hsl(337, 75%, 70%)" opacity="0.68"></circle><circle r="5" cx="235" cy="125" fill="hsl(290, 75%, 70%)" opacity="0.31"></circle><circle r="10" cx="448" cy="730" fill="hsl(319, 75%, 70%)" opacity="0.12"></circle><circle r="10" cx="21" cy="480" fill="hsl(321, 75%, 70%)" opacity="0.21"></circle><circle r="11.5" cx="592" cy="578" fill="hsl(318, 75%, 70%)" opacity="0.50"></circle><circle r="10" cx="778" cy="425" fill="hsl(313, 75%, 70%)" opacity="0.53"></circle><circle r="8" cx="58" cy="510" fill="hsl(312, 75%, 70%)" opacity="0.17"></circle><circle r="13" cx="569" cy="628" fill="hsl(320, 75%, 70%)" opacity="0.77"></circle><circle r="6.5" cx="160" cy="631" fill="hsl(288, 75%, 70%)" opacity="0.38"></circle><circle r="5" cx="234" cy="617" fill="hsl(281, 75%, 70%)" opacity="0.95"></circle><circle r="6" cx="331" cy="234" fill="hsl(294, 75%, 70%)" opacity="0.22"></circle><circle r="6" cx="164" cy="214" fill="hsl(286, 75%, 70%)" opacity="0.25"></circle><circle r="7" cx="251" cy="97" fill="hsl(305, 75%, 70%)" opacity="0.80"></circle><circle r="11" cx="721" cy="671" fill="hsl(314, 75%, 70%)" opacity="0.43"></circle><circle r="5.5" cx="232" cy="342" fill="hsl(281, 75%, 70%)" opacity="0.12"></circle><circle r="8" cx="745" cy="515" fill="hsl(313, 75%, 70%)" opacity="0.26"></circle><circle r="5" cx="216" cy="582" fill="hsl(281, 75%, 70%)" opacity="0.62"></circle><circle r="8" cx="693" cy="537" fill="hsl(314, 75%, 70%)" opacity="0.18"></circle><circle r="7" cx="370" cy="556" fill="hsl(303, 75%, 70%)" opacity="0.95"></circle><circle r="14" cx="453" cy="377" fill="hsl(320, 75%, 70%)" opacity="0.89"></circle><circle r="11" cx="599" cy="390" fill="hsl(318, 75%, 70%)" opacity="0.95"></circle><circle r="8.5" cx="722" cy="329" fill="hsl(314, 75%, 70%)" opacity="0.76"></circle><circle r="7" cx="136" cy="262" fill="hsl(293, 75%, 70%)" opacity="0.65"></circle><circle r="9" cx="323" cy="125" fill="hsl(310, 75%, 70%)" opacity="0.90"></circle><circle r="6" cx="324" cy="703" fill="hsl(291, 75%, 70%)" opacity="0.20"></circle><circle r="7.5" cx="354" cy="342" fill="hsl(300, 75%, 70%)" opacity="0.31"></circle><circle r="8" cx="637" cy="423" fill="hsl(316, 75%, 70%)" opacity="0.46"></circle><circle r="8" cx="15" cy="194" fill="hsl(321, 75%, 70%)" opacity="0.41"></circle><circle r="8.5" cx="687" cy="21" fill="hsl(300, 75%, 70%)" opacity="0.20"></circle><circle r="5" cx="268" cy="636" fill="hsl(283, 75%, 70%)" opacity="0.58"></circle><circle r="9" cx="387" cy="432" fill="hsl(306, 75%, 70%)" opacity="0.81"></circle><circle r="11.5" cx="448" cy="497" fill="hsl(319, 75%, 70%)" opacity="0.53"></circle><circle r="10.5" cx="427" cy="168" fill="hsl(318, 75%, 70%)" opacity="0.99"></circle><circle r="11" cx="468" cy="650" fill="hsl(321, 75%, 70%)" opacity="0.41"></circle><circle r="7" cx="64" cy="784" fill="hsl(309, 75%, 70%)" opacity="0.54"></circle><circle r="7" cx="116" cy="228" fill="hsl(296, 75%, 70%)" opacity="0.74"></circle><circle r="10" cx="362" cy="131" fill="hsl(313, 75%, 70%)" opacity="0.20"></circle><circle r="4" cx="255" cy="520" fill="hsl(282, 75%, 70%)" opacity="0.62"></circle><circle r="11" cx="572" cy="59" fill="hsl(316, 75%, 70%)" opacity="0.94"></circle><circle r="6.5" cx="290" cy="218" fill="hsl(286, 75%, 70%)" opacity="0.99"></circle><circle r="5.5" cx="183" cy="274" fill="hsl(284, 75%, 70%)" opacity="0.70"></circle><circle r="10.5" cx="650" cy="472" fill="hsl(315, 75%, 70%)" opacity="0.19"></circle><circle r="11.5" cx="311" cy="22" fill="hsl(344, 75%, 70%)" opacity="0.76"></circle><circle r="12" cx="606" cy="490" fill="hsl(317, 75%, 70%)" opacity="0.75"></circle><circle r="5.5" cx="207" cy="150" fill="hsl(287, 75%, 70%)" opacity="0.58"></circle><circle r="6.5" cx="306" cy="341" fill="hsl(289, 75%, 70%)" opacity="0.61"></circle><circle r="8.5" cx="622" cy="354" fill="hsl(316, 75%, 70%)" opacity="0.64"></circle><circle r="9" cx="412" cy="750" fill="hsl(312, 75%, 70%)" opacity="0.26"></circle><circle r="12.5" cx="492" cy="602" fill="hsl(323, 75%, 70%)" opacity="0.42"></circle><circle r="12" cx="544" cy="477" fill="hsl(321, 75%, 70%)" opacity="0.51"></circle><circle r="6.5" cx="233" cy="13" fill="hsl(316, 75%, 70%)" opacity="0.81"></circle><circle r="8" cx="682" cy="344" fill="hsl(314, 75%, 70%)" opacity="0.95"></circle><circle r="6.5" cx="336" cy="377" fill="hsl(294, 75%, 70%)" opacity="0.68"></circle><circle r="5" cx="254" cy="719" fill="hsl(282, 75%, 70%)" opacity="0.76"></circle><circle r="12" cx="770" cy="276" fill="hsl(313, 75%, 70%)" opacity="0.97"></circle><circle r="13" cx="551" cy="390" fill="hsl(321, 75%, 70%)" opacity="0.33"></circle><circle r="7" cx="14" cy="778" fill="hsl(321, 75%, 70%)" opacity="0.43"></circle><circle r="12" cx="334" cy="50" fill="hsl(342, 75%, 70%)" opacity="0.12"></circle><circle r="5" cx="290" cy="560" fill="hsl(286, 75%, 70%)" opacity="0.98"></circle><circle r="9.5" cx="402" cy="472" fill="hsl(312, 75%, 70%)" opacity="0.98"></circle><circle r="9" cx="739" cy="443" fill="hsl(313, 75%, 70%)" opacity="0.19"></circle><circle r="7" cx="112" cy="735" fill="hsl(299, 75%, 70%)" opacity="0.83"></circle><circle r="4.5" cx="212" cy="546" fill="hsl(282, 75%, 70%)" opacity="0.51"></circle><circle r="5" cx="223" cy="735" fill="hsl(281, 75%, 70%)" opacity="0.93"></circle><circle r="9" cx="18" cy="77" fill="hsl(315, 75%, 70%)" opacity="0.58"></circle><circle r="7.5" cx="40" cy="19" fill="hsl(307, 75%, 70%)" opacity="0.11"></circle><circle r="10.5" cx="582" cy="217" fill="hsl(319, 75%, 70%)" opacity="0.33"></circle><circle r="10.5" cx="745" cy="722" fill="hsl(313, 75%, 70%)" opacity="0.13"></circle><circle r="6" cx="152" cy="730" fill="hsl(288, 75%, 70%)" opacity="0.55"></circle><circle r="9" cx="389" cy="284" fill="hsl(309, 75%, 70%)" opacity="0.49"></circle><circle r="11" cx="630" cy="715" fill="hsl(316, 75%, 70%)" opacity="0.79"></circle><circle r="14" cx="492" cy="477" fill="hsl(323, 75%, 70%)" opacity="0.37"></circle><circle r="13" cx="571" cy="528" fill="hsl(320, 75%, 70%)" opacity="0.36"></circle><circle r="10" cx="774" cy="687" fill="hsl(313, 75%, 70%)" opacity="0.79"></circle><circle r="9.5" cx="64" cy="551" fill="hsl(309, 75%, 70%)" opacity="0.26"></circle><circle r="5.5" cx="227" cy="677" fill="hsl(281, 75%, 70%)" opacity="0.93"></circle><circle r="4.5" cx="284" cy="785" fill="hsl(285, 75%, 70%)" opacity="0.78"></circle><circle r="7" cx="351" cy="594" fill="hsl(300, 75%, 70%)" opacity="0.43"></circle><circle r="5" cx="210" cy="511" fill="hsl(282, 75%, 70%)" opacity="0.26"></circle><circle r="5.5" cx="197" cy="426" fill="hsl(283, 75%, 70%)" opacity="1.00"></circle><circle r="8" cx="100" cy="158" fill="hsl(301, 75%, 70%)" opacity="0.80"></circle><circle r="8" cx="371" cy="624" fill="hsl(303, 75%, 70%)" opacity="0.99"></circle><circle r="7.5" cx="123" cy="612" fill="hsl(296, 75%, 70%)" opacity="0.68"></circle><circle r="11.5" cx="24" cy="577" fill="hsl(321, 75%, 70%)" opacity="0.79"></circle><circle r="5.5" cx="163" cy="441" fill="hsl(286, 75%, 70%)" opacity="0.82"></circle><circle r="7.5" cx="145" cy="778" fill="hsl(290, 75%, 70%)" opacity="0.64"></circle><circle r="8.5" cx="84" cy="588" fill="hsl(305, 75%, 70%)" opacity="0.62"></circle><circle r="5" cx="238" cy="425" fill="hsl(281, 75%, 70%)" opacity="0.28"></circle><circle r="12" cx="449" cy="122" fill="hsl(328, 75%, 70%)" opacity="0.13"></circle><circle r="10" cx="598" cy="326" fill="hsl(318, 75%, 70%)" opacity="0.95"></circle><circle r="9.5" cx="713" cy="292" fill="hsl(314, 75%, 70%)" opacity="0.93"></circle><circle r="9" cx="75" cy="681" fill="hsl(305, 75%, 70%)" opacity="0.54"></circle><circle r="7.5" cx="350" cy="463" fill="hsl(297, 75%, 70%)" opacity="0.13"></circle><circle r="10.5" cx="674" cy="681" fill="hsl(315, 75%, 70%)" opacity="0.97"></circle><circle r="6" cx="222" cy="287" fill="hsl(281, 75%, 70%)" opacity="0.44"></circle><circle r="5.5" cx="249" cy="561" fill="hsl(281, 75%, 70%)" opacity="0.19"></circle><circle r="11" cx="348" cy="85" fill="hsl(330, 75%, 70%)" opacity="0.81"></circle><circle r="7" cx="102" cy="73" fill="hsl(295, 75%, 70%)" opacity="0.32"></circle><circle r="11" cx="777" cy="224" fill="hsl(313, 75%, 70%)" opacity="0.32"></circle><circle r="9" cx="81" cy="114" fill="hsl(302, 75%, 70%)" opacity="0.57"></circle><circle r="5.5" cx="307" cy="614" fill="hsl(289, 75%, 70%)" opacity="0.84"></circle><circle r="12.5" cx="25" cy="670" fill="hsl(321, 75%, 70%)" opacity="0.40"></circle><circle r="5.5" cx="197" cy="108" fill="hsl(292, 75%, 70%)" opacity="0.78"></circle><circle r="7" cx="117" cy="501" fill="hsl(296, 75%, 70%)" opacity="0.21"></circle><circle r="10.5" cx="533" cy="745" fill="hsl(322, 75%, 70%)" opacity="0.80"></circle><circle r="8.5" cx="34" cy="110" fill="hsl(312, 75%, 70%)" opacity="0.23"></circle><circle r="7" cx="113" cy="23" fill="hsl(293, 75%, 70%)" opacity="0.17"></circle><circle r="11.5" cx="581" cy="114" fill="hsl(313, 75%, 70%)" opacity="0.21"></circle><circle r="6" cx="343" cy="538" fill="hsl(297, 75%, 70%)" opacity="0.16"></circle><circle r="6.5" cx="240" cy="64" fill="hsl(309, 75%, 70%)" opacity="0.97"></circle><circle r="9.5" cx="57" cy="153" fill="hsl(309, 75%, 70%)" opacity="0.14"></circle><circle r="5" cx="163" cy="167" fill="hsl(287, 75%, 70%)" opacity="0.94"></circle><circle r="7" cx="122" cy="698" fill="hsl(296, 75%, 70%)" opacity="0.59"></circle><circle r="11" cx="559" cy="339" fill="hsl(321, 75%, 70%)" opacity="0.63"></circle><circle r="10.5" cx="523" cy="704" fill="hsl(322, 75%, 70%)" opacity="0.55"></circle><circle r="11" cx="578" cy="273" fill="hsl(319, 75%, 70%)" opacity="0.36"></circle><circle r="5.5" cx="268" cy="356" fill="hsl(283, 75%, 70%)" opacity="0.72"></circle><circle r="12.5" cx="524" cy="528" fill="hsl(322, 75%, 70%)" opacity="0.69"></circle><circle r="10" cx="275" cy="19" fill="hsl(336, 75%, 70%)" opacity="0.87"></circle><circle r="10" cx="778" cy="470" fill="hsl(313, 75%, 70%)" opacity="0.80"></circle><circle r="6.5" cx="304" cy="300" fill="hsl(289, 75%, 70%)" opacity="0.60"></circle><circle r="7" cx="373" cy="754" fill="hsl(303, 75%, 70%)" opacity="0.21"></circle><circle r="11.5" cx="460" cy="198" fill="hsl(320, 75%, 70%)" opacity="0.32"></circle><circle r="7" cx="654" cy="356" fill="hsl(315, 75%, 70%)" opacity="0.90"></circle><circle r="13" cx="365" cy="18" fill="hsl(352, 75%, 70%)" opacity="0.71"></circle><circle r="8" cx="48" cy="201" fill="hsl(315, 75%, 70%)" opacity="0.85"></circle><circle r="6.5" cx="158" cy="509" fill="hsl(288, 75%, 70%)" opacity="0.98"></circle><circle r="5.5" cx="260" cy="264" fill="hsl(282, 75%, 70%)" opacity="0.19"></circle><circle r="6.5" cx="783" cy="129" fill="hsl(297, 75%, 70%)" opacity="0.98"></circle><circle r="7.5" cx="105" cy="781" fill="hsl(299, 75%, 70%)" opacity="0.56"></circle><circle r="9" cx="402" cy="710" fill="hsl(312, 75%, 70%)" opacity="0.31"></circle><circle r="15" cx="506" cy="354" fill="hsl(323, 75%, 70%)" opacity="0.67"></circle><circle r="8" cx="745" cy="111" fill="hsl(293, 75%, 70%)" opacity="0.96"></circle><circle r="11" cx="620" cy="286" fill="hsl(316, 75%, 70%)" opacity="0.67"></circle><circle r="8" cx="732" cy="482" fill="hsl(314, 75%, 70%)" opacity="0.48"></circle><circle r="9" cx="615" cy="21" fill="hsl(306, 75%, 70%)" opacity="0.73"></circle><circle r="6.5" cx="667" cy="432" fill="hsl(315, 75%, 70%)" opacity="0.28"></circle></svg>