<svg xmlns="http://www.w3.org/2000/svg" version="1.1" xmlns:xlink="http://www.w3.org/1999/xlink" xmlns:svgjs="http://svgjs.dev/svgjs" viewBox="0 0 800 800"><defs><linearGradient x1="50%" y1="0%" x2="50%" y2="100%" id="ssscribble-grad"><stop stop-color="hsl(206, 75%, 49%)" stop-opacity="1" offset="0%"></stop><stop stop-color="hsl(331, 90%, 56%)" stop-opacity="1" offset="100%"></stop></linearGradient></defs><g fill="none" stroke-width="1.5" stroke="url(#ssscribble-grad)" stroke-linecap="round"><path d="M652.87 529C702.83 561.86 872.54 604.45 1034.89 654.14 1085.77 701.94 989.7 752.77 813.62 800.65 651.62 839.28 584.99 865.57 624.74 871.95 741.04 860.55 862.09 824.77 934.36 766.73 941.5 704.58 879.37 641.16 777.51 594.35 652.25 585.12 536.38 618.68 443.73 698.29 365.93 811.04 311.38 935.69 271.4 1040.44 238 1096.67 207.31 1085.86 174.45 1006.65 141.59 886.6 108.11 762.56 79.54 670.48 57.55 632.98 52.32 653.56 73.17 717.91 108.88 810.76 170.63 899.56 245.24 962.75 296.45 994.4 311.41 983.83 261.2 938.19 145.86 865.08 -14.14 776.97 -164.66 686.83 -238.62 594.89 -201.46 513.43 -63.55 445.13 88.43 382.85 165.79 331.8 102.23 289.32 -72.79 249.3 -249.16 213.5 -299.12 180.64 -184.36 147.78 9.29 119.41 145.8 97.46 142.03 77.96 14.15 69.23 -143.43 74.56 -241.94 85.91 -219.98 113.25 -98.77 154.54 69.3 194.04 211.77 234.98 288.09 265.03 290.43 267.6 237.72 239.22 166.21 173.36 87.91 75.96 36.97 -42.3 18.59 -159.24 20.81 -247.68 46.36 -286.98 82.62 -262.17 125.37 -182.79 166.12 -65.41 198.98 54.63 231.84 133.86 255.26 151.35 274.48 107.81 300.19 15.74 334.42 -90.2 389.15 -178.86 464.47 -234.39 569.53 -238.49 698.48 -195.06 820.63 -114.03 920.52 -11.65 961.25 93.56 927.99 194.67 824.5 277.62 690.63 339.67 603.63 383.94 611.14 411.77 733.74 430.1 915.42 439.17 1062 448.12 1078.46 462.29 954.63 474.57 767.63 496.15 652.87 529Q652.87 529 652.87 529" opacity="0.15"></path><path d="M618.87 610.79C659.87 641.3 810.39 675.28 970.7 710.33 1051.86 743.1 1004.67 772.51 862.87 793.62 693.86 806.51 575.55 804.64 544.53 784.37 600.19 753.86 702.56 706.94 802.61 649.52 876.98 599.52 895.61 559.15 864.25 542.46 793.47 562.09 702.43 619.12 611.21 710.97 516.44 822.48 437.13 935.22 375.76 1023.09 317.25 1065.13 273.25 1048.19 242.73 972.65 212.22 861.77 196.64 745.01 197.61 652.07 201.43 602.74 225.23 603.41 267.12 646.21 305.46 721.91 346.25 805.13 370 876.48 354.34 930 291.9 950.56 177.53 939.08 37.49 900.93 -101.05 841.37 -188.48 771.02 -189.23 691.45 -98.29 613.81 48.35 543.69 167.78 474.61 197.6 415.49 104.66 366.71 -67.42 319.19 -224.12 280.12 -265.12 249.6 -162.79 219.09 15.94 198.57 160.6 188.54 193.96 179.78 108.25 183.39 -34.97 199.58 -164.65 216.83 -209.05 244.21 -156.29 276.76 -29.43 300.08 120.85 315.85 246.75 314 327.25 285.5 350.04 228.77 331.39 143.48 280.33 40.36 225.49 -70.22 183.65 -168.28 145.83 -233.46 130.2 -251.51 134.17 -213.97 142.6 -132.81 163.68 -22.24 194.19 88.63 224.7 164.19 263.21 187.32 312.32 157.07 365.9 80.99 437.04 -14.37 527.74 -103.52 622.46 -173.01 727.55 -202.68 825.63 -190.55 891.31 -142.1 912.33 -65.55 871.83 24.43 785.92 121.84 671.81 212.57 576.72 290.11 555.73 357.41 627.5 409.54 779.54 449.53 945.14 481.31 1048.22 507.4 1026.64 532.18 893.75 554.67 721.2 580.27 618.87 610.79Q618.87 610.79 618.87 610.79" opacity="0.32"></path><path d="M584.87 622.18C617.65 650.35 748.7 675.29 901.81 695.52 1004.54 713.89 1002.71 724.15 905.06 723.5 753.24 717.65 610.01 698.15 521.64 665 505.73 629.51 553.8 586.37 634.17 543 727.78 514.24 797.53 501.55 830.91 514.43 832.85 558.3 801.89 631.74 752.25 728.63 687.65 833.77 622.45 932.11 565.91 1003.07 507.57 1032.13 462.89 1010.19 434.72 938.65 406.55 836.9 396.24 728.06 401.46 636.17 404.88 577.98 418.84 561.26 434.62 582.88 435.45 638.18 420.03 708.73 374.68 778.52 297.88 842.74 187.7 884.89 57.17 901.6 -60.1 896.9 -141.57 869.5 -154.98 826.52 -95.95 770.92 22.01 710.05 153.19 650.31 230.19 587.68 215.99 531.15 102.4 483.35 -61.58 435.55 -198.34 396.95 -231.12 368.77 -140.72 340.61 21.73 324.21 168.79 318.89 232.69 313.56 190.82 318.85 76.96 332.67 -104.55 350.84 -46.52 363.34 140.51 324.61 263.14 270.99 350.19 195.45 397.82 101.91 410.43 2.79 398.64 -93.02 378.61 -168.97 347.95 -211.24 326.17 -210.56 319.53 -163.25 312.85 -82.24 323.12 20.87 351.29 122.63 379.45 194.18 424.18 221.85 483.99 203.67 543.75 143.59 616.76 61.27 696.23 -23.21 794.17 -123.56 826.53 -122.71 717.51 -33.99 624.72 46.28 543.45 129.86 511.82 208.77 555.94 285.33 672.13 351.21 828.83 405.88 963.34 455.34 1021.24 496.31 968.21 531.07 832.03 563.96 675.27 594.01 584.87 622.18Q584.87 622.18 584.87 622.18" opacity="0.87"></path><path d="M550.87 559.38C576.19 585.2 687.88 602.96 829.42 612.28 944.65 620.58 981.07 618.82 930.93 606.49 814.72 592.53 674.82 568.55 554.7 537.08 478.45 509.45 459.94 481.79 487.85 461.1 552.05 457.59 624.35 472.24 685.41 510.23 736.5 571.5 761.26 653.59 762.7 748.75 750.01 843.3 723.88 925.65 692.7 980.23 657.58 997.68 625.21 971.84 599.39 904.65 573.57 811.99 555.53 711.6 541.95 622.56 524.43 558.49 503.6 527.46 471.54 529.54 425.36 563.22 358.08 616.19 267.19 676.27 166.34 740.31 56.97 792.77 -41.06 828.03 -102.8 849.46 -114.91 850.98 -65.55 836.04 27.68 808.97 144.42 772.08 241.71 730.87 272.92 684.74 221.81 639.81 96.62 599.62 -54.88 558.52 -171.8 524.19 -197.12 498.37 -118.13 472.55 27.1 456.46 171.21 448.87 257.86 440.36 257.29 438.32 182.22 439.7 62.17 436.17 -49.18 430.54 -114.86 417.83 -122.75 392.98 -69.75 354.39 22.45 299.12 137.89 230.03 248.72 146.96 339.33 56.04 410.57 -30.92 455.3 -107.05 480.79 -159.66 491.55 -180.67 496.31 -164.35 503.52 -110.26 507.49 -31.19 520.83 63.95 546.64 156.62 572.46 223.83 609.55 254.91 654.27 247.44 695.75 202.83 737.96 135.17 771.95 59.55 791.2 -16.68 788.99 -75.62 757.55 -110.01 706.73 -121.11 632.97 -105.15 551.37 -67.81 493 -13.28 470.62 51.44 505.39 118.86 597.95 190.13 732.47 256.63 871.44 315.33 965.44 372.41 980.7 421.14 904.02 461.53 769.87 500.9 629.86 533.56 550.87 559.38Q550.87 559.38 550.87 559.38" opacity="0.22"></path><path d="M516.86 443.37C535.55 466.84 628.42 480.58 754.92 485.1 873.84 489.53 938.79 484.8 933.2 472.13 862.81 460.78 749.94 444.16 627.85 425.84 518.43 414.79 445.49 408.93 413.51 413.65 420.18 434.22 453.57 471.56 497.74 527.32 551.89 597.99 596.83 681.07 626.61 768.66 651.32 849.52 659.88 915.2 654.96 954.42 647.24 961.8 630.7 933.19 607.23 870.66 583.76 787.02 554.47 695.54 517.91 610.96 478.57 543.96 427.31 502.11 361.93 487.36 291.47 500.1 207.88 533.01 117.55 577.63 37.2 632.3 -29.88 684.08 -67.31 726.75 -66.09 763.37 -20.99 785.33 63.99 793 161.64 791.71 253.45 779.07 306.63 758.69 295.02 733.33 216.71 704.72 88.74 676.04 -46.81 646.1 -144.44 618.6 -163.13 595.12 -95 571.65 32.44 553.33 168.88 539 269.91 523.41 304.55 509.32 271.46 494 183.93 473.71 78.37 447.69 -12 412.81 -71.91 368.96 -82.76 313.31 -49.55 245.92 19.28 172.49 107.68 92.88 198.69 13.76 290.91 -55.28 368.92 -109.24 430.15 -139.2 482.64 -141.65 521.79 -113.16 552.1 -55.21 579.1 20.29 603.23 107.02 626.7 190.66 661.03 269.87 704.88 231.91 694.85 142.1 674.31 71.71 634.96 9.68 578.92 -36.54 496.73 -72.62 448.15 -21.35 551.83 45.65 666.65 100.14 793.26 155.42 898 207.44 948.31 260.78 927.06 308.21 835.11 348.06 707.73 387.8 585.03 419.89 516.87 443.36Q516.86 443.37 516.86 443.37" opacity="0.46"></path><path d="M482.98 312.75C495.46 333.88 570.09 346.83 678.97 352.5 835.08 358.76 849.19 352.77 715.62 352.55 605.71 361.09 507.01 377.33 432.01 404.5 382.51 443.68 361.27 496.01 360.86 560.76 378.89 632.76 403.56 710.06 426.26 785.59 461.66 875.47 476.43 909.23 451.43 836.55 430.3 761.86 396.81 679.62 352.06 600.95 307.14 533.81 251.4 484.8 188.04 456.77 128.73 450.97 69.27 463.8 18.69 489.97 -13.45 528.95 -22.54 571.08 -0.73 610.73 46.58 650.7 120.22 681.93 208.14 702.84 284.27 719.03 336.2 724.91 343.67 721.94 297.02 715.37 202.33 702.63 79.41 685.76 -37.62 667.78 -116.53 647.73 -129.01 626.6 -70.74 605.48 38.94 584.28 163.75 562.42 270.57 539.46 331.35 513.76 337.09 483.73 290.31 450.09 211.09 409.42 123.74 360.68 40.67 307.22 -14.75 245.65 -36.46 178 -27.71 110.66 9.74 43.48 64.74 -17.49 134.14 -65.66 205.29 -97.44 270.47 -107.13 336.1 -94.59 391.06 -57.61 434.18 1.36 476.15 71.87 507.79 149.82 528.91 224.52 554.84 299.36 545.97 290.08 508.68 221.7 480.11 161.65 443.75 103.3 406.91 53.28 384.47 10.54 377.34 -16.75 396.28 -28.24 445.67 -27.73 526.16 -13.63 631.22 10.37 740.57 42.22 838.74 78.88 901 116.58 910.74 157.21 861.99 195.52 763.32 229.16 646.66 263.33 541.25 291.63 482.98 312.75Q482.98 312.75 482.98 312.75" opacity="0.34"></path><path d="M448.85 211.43C456.7 230.21 514.92 244.5 605.03 255.08 708.94 266.44 797.77 275.64 853.52 284.44 870.66 296.35 845.03 310.8 786.3 330.08 703.29 355.65 611.79 389.02 525.02 431.44 445.62 481.07 383.96 539.38 340.6 604.3 311.92 670.54 296.76 736.79 289.39 797.36 289.7 863.32 279.48 870.32 255.95 802.63 237.17 736.79 210.01 664.04 176.63 592.5 144.86 527.79 110.27 475.3 77.63 438.06 44.58 414.88 68.21 453.72 140.35 495.9 202.51 529.04 271.75 558.69 335.2 582.39 374.38 605.23 383.17 620.4 352.27 627.66 282.76 633.21 183.24 631.7 72.08 623.78 -25.26 615.21 -87.29 601.4 -95.14 582.62 -46.75 563.84 45.06 540.99 155.18 514.15 260.42 486.65 337.76 454 375.33 415.91 369.9 376.11 328.83 330.01 266.44 278.23 190.17 225.59 120.06 168.98 66.57 111.24 28.55 57.82 14.46 8.79 20.91 -31.11 43.11 -58.3 77.47 -70.05 116.93 -63.18 162.49 -39.7 205.9 2.09 242.93 59.55 280.94 123.85 310.26 192.79 329.04 258.63 351.5 328.22 346.34 342.96 328.7 296.11 321.78 249.3 318.33 199.89 325.07 153.2 347.56 107.83 388.59 71.79 451.22 46.76 529.31 28.96 621.68 22.54 717.51 25.92 799.45 35.58 857.38 52.05 876.59 72.68 852.79 96.42 786.16 121.38 688.17 145.44 585.3 170.27 497.28 192.64 448.86 211.42Q448.85 211.43 448.85 211.43" opacity="0.56"></path><path d="M414.86 172.99C464.83 205.85 626.44 238.54 773.69 277.02 833.92 324.77 771.91 392.93 645.89 485.51 494.32 589.37 374.16 703.96 298.07 801.4 242.42 855.82 205.99 847.85 173.13 768.62 140.27 648.57 114.08 523.87 112.79 430.25 131.93 381.28 200.8 376.29 309.31 397.25 392.26 441.53 419.41 480.13 335.09 498.57 163.76 516.75 -11.16 510.4 -61.13 477.54 53.62 444.68 246.15 388.42 384.81 313.29 408.44 237.91 330.93 148.02 226.92 60.67 124.49 -3.36 79.31 -33.22 83.67 -8.33 111.52 61.19 152.69 172.57 185.55 292.62 218.41 371.85 239.85 393.14 268.95 362.81 321.54 289.46 418 209.72 563.51 148.93 710.59 99.41 822.95 82.54 823.41 91.74 708.83 110.21 529.62 140.13 414.86 172.99Q414.86 172.99 414.86 172.99" opacity="0.65"></path><path d="M380.86 210.34C413.68 238.5 537.93 278.51 674.37 330.99 774.56 388.15 789.09 463.69 735.08 553.59 634.55 642.55 525.55 730.44 438.08 796 353.8 825.28 296.94 806.19 268.77 734.66 240.61 632.91 243.8 523.67 279.26 432.28 350.45 351.89 441.47 350.07 298.43 367.77 141.34 380.12 5.68 374.7 -27.13 346.54 63.22 318.37 224.48 270.12 368.43 208.96 446.76 151.32 442.37 89.61 389.28 39.08 303.64 10.31 234.84 12.76 201.43 56.33 177.23 127.07 182.56 224.88 210.72 326.63 238.88 398.18 287.21 428.69 360.21 420.07 442.43 375.15 555.2 317.14 677.76 265.09 767.78 212.11 802.06 180.52 744.39 172.17 621.1 168.51 471.26 182.16 380.87 210.33Q380.86 210.34 380.86 210.34" opacity="0.66"></path><path d="M346.86 311.01C365.55 334.48 453.05 374.25 564.07 427.21 672.9 481.03 735.52 547.8 746.52 620.11 718.96 685.42 663.78 743.42 606 779.83 540.69 789.07 491.1 763.19 467.63 700.66 444.16 617.02 449.03 525.3 473.65 442.36 490.76 373.33 509.31 324.51 506.1 294.61 464.34 280.49 376.82 274.72 250.79 268.78 122.57 267.17 25.55 256.89 6.86 233.42 74.99 209.95 201.44 175.51 332.26 136.44 463.27 86.27 447.61 65.29 399.62 129.07 368.13 194.79 361.32 276.99 384.79 360.63 408.25 423.17 459.77 458.58 531.93 466.55 600.56 447.35 677.27 414.25 737.58 379.69 760.85 338.15 732.97 308 645.57 294.86 531.96 282.58 415.02 287.53 346.87 311Q346.86 311.01 346.86 311.01" opacity="0.96"></path><path d="M312.92 441.34C320.62 460.12 374.83 492.55 452.57 534.48 544.15 575.25 619.2 622.63 665.52 669.64 693.83 723.98 644.52 733.06 613.39 666.61 594.61 600.76 583.54 527.86 573.66 458.3 555.96 393.98 525.56 340.51 473.19 299.8 402.26 267.9 307.29 244.44 201.94 225.95 110.44 210.64 48.62 194.65 40.92 175.87 89.45 157.09 180.72 137.3 285.13 120.07 387.55 106.03 466.74 100.18 516.56 107.47 543.07 123.57 550.98 157.12 553.26 207.68 548.43 263.47 551.85 328.76 570.63 394.61 589.4 446.87 621.76 482.85 659.14 501.41 689.41 502.23 710.79 491.93 708.9 477.31 683.69 454.91 624.42 436.83 535.76 428.6 445.11 419.22 361.45 422.57 312.92 441.34Q312.92 441.34 312.92 441.34" opacity="0.70"></path><path d="M278.86 557.95C311.68 586.12 422.38 640.45 515.82 689.89 598.61 717.46 619.32 704.19 591.16 632.66 562.99 530.9 491.28 420.9 371.57 338.34 241.21 269.22 107.68 221.4 74.86 193.24 165.24 165.07 324.04 161.89 449.09 194.09 544.59 239.73 594.3 326.9 622.47 428.66 650.63 500.19 651.93 536.29 593.34 545.64 505.21 533.12 369.24 529.78 278.86 557.95Q278.86 557.95 278.86 557.95" opacity="0.23"></path><path d="M244.87 621.76C314.82 659.32 456.14 684.16 418.59 598.65 381.03 460.22 178.82 317.15 108.87 279.59 249.72 242.04 461.6 324.22 499.16 462.65 536.71 548.16 385.72 584.21 244.87 621.76Q244.87 621.76 244.87 621.76" opacity="0.91"></path></g></svg>