<svg xmlns="http://www.w3.org/2000/svg" version="1.1" xmlns:xlink="http://www.w3.org/1999/xlink" xmlns:svgjs="http://svgjs.dev/svgjs" viewBox="0 0 800 800"><defs><filter id="uuunion-blur" x="-100%" y="-100%" width="400%" height="400%" color-interpolation-filters="sRGB">
        <feGaussianBlur in="SourceGraphic" stdDeviation="0 0" result="blur"></feGaussianBlur>
        <feDropShadow stdDeviation="12.307692307692308" in="blur" dx="10" dy="10" flood-color="hsl(316, 73%, 52%)" flood-opacity="0.25" x="0%" y="0%" width="100%" height="100%"></feDropShadow>
      </filter><filter id="uuunion-blur2" x="-100%" y="-100%" width="400%" height="400%" color-interpolation-filters="sRGB">
        <feGaussianBlur in="SourceGraphic" stdDeviation="0 0" result="blur"></feGaussianBlur>
        <feDropShadow stdDeviation="12.307692307692308" in="blur" dx="-10" dy="-10" flood-color="hsl(316, 73%, 52%)" flood-opacity="0.25" x="0%" y="0%" width="100%" height="100%"></feDropShadow>
      </filter><linearGradient gradientTransform="rotate(0, 0.5, 0.5)" x1="50%" y1="0%" x2="50%" y2="100%" id="uuunion-grad"><stop stop-color="hsl(37, 99%, 67%)" offset="10%"></stop><stop stop-color="hsl(316, 73%, 52%)" offset="90%"></stop></linearGradient><linearGradient gradientTransform="rotate(135, 0.5, 0.5)" x1="50%" y1="0%" x2="50%" y2="100%" id="uuunion-grad2"><stop stop-color="hsl(37, 99%, 67%)" offset="25%"></stop><stop stop-color="hsl(316, 73%, 52%)" offset="100%"></stop></linearGradient><linearGradient gradientTransform="rotate(333, 0.5, 0.5)" x1="50%" y1="0%" x2="50%" y2="100%" id="uuunion-grad3"><stop stop-color="hsl(37, 99%, 67%)" offset="0%"></stop><stop stop-color="hsl(316, 73%, 52%)" offset="75%"></stop></linearGradient></defs><path d="M-78.94 -78.32Q-64.32 -76.17 -49.7 -74.27 -35.07 -72.75 -20.45 -71.71 -5.83 -71.23 8.79 -71.33 23.41 -72 38.03 -73.21 52.65 -74.86 67.28 -76.86 81.9 -79.07 96.52 -81.34 111.14 -83.52 125.77 -85.46 140.39 -87.05 155.01 -88.16 169.63 -88.73 184.26 -88.72 198.88 -88.12 213.5 -86.99 228.12 -85.4 242.75 -83.44 257.37 -81.25 271.99 -78.98 286.62 -76.78 301.24 -74.79 315.86 -73.15 330.48 -71.96 345.11 -71.31 359.73 -71.24 374.35 -71.74 388.97 -72.8 403.6 -74.33 418.22 -76.25 432.84 -78.41 447.46 -80.67 462.09 -82.89 476.71 -84.92 491.33 -86.62 505.96 -87.88 520.58 -88.62 535.2 -88.78 549.82 -88.36 564.45 -87.38 579.07 -85.91 593.69 -84.05 608.31 -81.91 622.94 -79.65 637.56 -77.42 652.18 -75.35 666.8 -73.59 681.43 -72.26 696.05 -71.44 710.67 -71.2 725.3 -71.53 739.92 -72.43 754.54 -73.84 769.16 -75.65 783.79 -77.75 798.41 -80 813.03 -82.25 827.65 -84.35 842.28 -86.16 856.9 -87.56 855.94 -72.76 857.87 -57.95 862.47 -43.14 869.19 -28.34 877.2 -13.53 885.55 1.27 893.23 16.07 899.32 30.88 903.08 45.69 904.06 60.49 902.14 75.3 897.55 90.11 890.85 104.91 882.84 119.72 874.49 134.52 866.8 149.33 860.7 164.14 856.93 178.94 855.93 193.75 857.83 208.56 862.41 223.36 869.1 238.17 877.1 252.98 885.45 267.78 893.15 282.59 899.26 297.4 903.05 312.2 904.06 327.01 902.18 341.82 897.62 356.62 890.94 371.43 882.94 386.24 874.59 401.04 866.88 415.85 860.76 430.65 856.96 445.46 855.93 460.27 857.8 475.07 862.34 489.88 869.01 504.69 877 519.49 885.36 534.3 893.06 549.11 899.2 563.91 903.02 578.72 904.07 593.53 902.21 608.33 897.69 623.14 891.03 637.95 883.04 652.75 874.68 667.56 866.97 682.37 860.82 697.17 856.99 711.98 855.92 726.78 857.76 741.59 862.27 756.4 868.92 771.2 876.9 786.01 885.26 800.82 892.98 815.62 899.14 830.43 902.99 845.24 904.07 860.04 888.68 863.73 873.28 868.51 857.89 874.04 842.5 879.98 827.1 885.91 811.71 891.45 796.32 896.23 780.92 899.93 765.53 902.3 750.14 903.19 734.74 902.54 719.35 900.38 703.96 896.87 688.56 892.24 673.17 886.8 657.78 880.9 642.38 874.94 626.99 869.32 611.6 864.4 596.2 860.53 580.81 857.95 565.42 856.83 550.02 857.26 534.63 859.2 519.24 862.52 503.84 867 488.45 872.35 473.06 878.21 457.66 884.18 442.27 889.88 426.88 894.92 411.48 898.97 396.09 901.75 380.7 903.09 365.3 902.89 349.91 901.17 334.52 898.04 319.12 893.71 303.73 888.47 288.34 882.66 272.94 876.68 257.55 870.92 242.16 865.76 226.76 861.55 211.37 858.56 195.98 857 180.58 856.97 165.19 858.48 149.8 861.41 134.4 865.58 119.01 870.71 103.62 876.45 88.22 882.43 72.83 888.25 57.44 893.52 42.04 897.89 26.65 901.07 11.26 902.85 -4.13 903.11 -19.52 901.83 -34.91 899.1 -50.31 895.1 -65.7 890.09 -81.09 884.41 -81.04 869.37 -80.87 854.32 -80.59 839.28 -80.24 824.24 -79.85 809.2 -79.49 794.15 -79.19 779.11 -78.98 764.07 -78.9 749.02 -78.94 733.98 -79.12 718.94 -79.4 703.9 -79.75 688.85 -80.13 673.81 -80.5 658.77 -80.8 643.73 -81.01 628.68 -81.09 613.64 -81.05 598.6 -80.87 583.55 -80.59 568.51 -80.24 553.47 -79.86 538.43 -79.49 523.38 -79.19 508.34 -78.98 493.3 -78.9 478.25 -78.94 463.21 -79.12 448.17 -79.4 433.13 -79.75 418.08 -80.13 403.04 -80.49 388 -80.8 372.95 -81.01 357.91 -81.09 342.87 -81.05 327.83 -80.87 312.78 -80.6 297.74 -80.24 282.7 -79.86 267.65 -79.5 252.61 -79.19 237.57 -78.98 222.53 -78.9 207.48 -78.94 192.44 -79.11 177.4 -79.39 162.35 -79.74 147.31 -80.12 132.27 -80.49 117.23 -80.8 102.18 -81.01 87.14 -81.09 72.1 -81.05 57.06 -80.88 42.01 -80.6 26.97 -80.25 11.93 -79.87 -3.11 -79.5 -18.15 -79.2 -33.19 -78.99 -48.23 -78.9 -63.28 -78.94 -78.32" fill="url(#uuunion-grad)"></path><path d="M-78.94 -78.32Q-78.9 -63.28 -78.99 -48.23 -79.2 -33.19 -79.5 -18.15 -79.87 -3.11 -80.25 11.93 -80.6 26.97 -80.88 42.01 -81.05 57.06 -81.09 72.1 -81.01 87.14 -80.8 102.18 -80.49 117.23 -80.12 132.27 -79.74 147.31 -79.39 162.35 -79.11 177.4 -78.94 192.44 -78.9 207.48 -78.98 222.53 -79.19 237.57 -79.5 252.61 -79.86 267.65 -80.24 282.7 -80.6 297.74 -80.87 312.78 -81.05 327.83 -81.09 342.87 -81.01 357.91 -80.8 372.95 -80.49 388 -80.13 403.04 -70.1 405.69 -60.07 408.17 -50.03 410.41 -40 412.34 -29.97 413.9 -19.94 415.05 -1.13 415.93 2.11 415.99 14.82 409.16 27.61 401.63 40.47 393.47 53.39 384.78 66.35 375.66 79.33 366.26 92.3 356.73 105.26 347.21 118.16 337.87 131 328.83 143.74 320.22 156.37 312.14 168.88 304.68 181.24 297.88 193.45 291.75 205.51 286.29 217.4 281.44 229.15 277.14 240.74 273.29 252.21 269.78 263.57 266.46 274.83 263.21 286.04 259.89 297.21 256.36 308.38 252.51 319.59 248.21 330.86 243.41 342.25 238.02 353.77 232.02 365.46 225.42 377.36 218.22 389.48 210.5 401.86 202.31 414.49 193.75 427.4 184.95 440.59 176.01 454.05 167.06 467.77 158.24 481.74 149.64 495.93 141.38 510.31 133.55 524.85 126.21 539.49 119.4 554.21 113.15 568.94 107.43 583.63 102.23 598.24 97.48 612.7 93.11 626.97 89.02 641 85.11 654.75 81.28 668.17 77.4 681.23 73.37 693.9 69.09 706.17 64.48 718.03 59.46 729.48 53.99 740.52 48.04 751.18 41.59 761.48 34.68 771.47 27.33 781.17 19.62 790.66 11.6 800 3.37 791.29 -14.21 784 -31.8 779.33 -49.39 778.03 -66.98 780.32 -84.56 785.83 -102.15 790.6 -127.63 772.6 -134.02 757.65 -132.9 742.7 -132.25 727.75 -132.11 712.8 -132.48 697.85 -133.35 682.9 -134.66 667.94 -136.32 652.99 -138.21 638.04 -140.23 623.09 -142.23 608.14 -144.08 593.19 -145.67 578.24 -146.88 563.29 -147.64 548.34 -147.89 533.39 -147.63 518.44 -146.87 503.49 -145.66 488.53 -144.07 473.58 -142.22 458.63 -140.22 443.68 -138.2 428.73 -136.31 413.78 -134.65 398.83 -133.35 383.88 -132.48 368.93 -132.11 353.98 -132.25 339.03 -132.91 324.08 -134.03 309.12 -135.54 294.17 -137.34 279.22 -139.32 264.27 -141.34 249.32 -143.28 234.37 -145 219.42 -146.39 204.47 -147.36 189.52 -147.84 174.57 -147.81 159.62 -147.27 144.67 -146.25 129.71 -144.82 114.76 -143.07 99.81 -141.12 84.86 -139.1 69.91 -137.13 54.96 -135.35 40.01 -133.88 25.06 -132.81 10.11 -132.21 -4.83 -132.12 -19.78 -132.55 -34.73 -133.47 -49.69 -134.82 -64.64 -136.5 -79.59 -138.42 -94.54 -140.44 -109.49 -142.43 -124.44 -144.26 -133.65 -132.27 -115.85 -113.6 -106.49 -104.89 -97.22 -96.09 -88.04 -87.22 -78.94 -78.32" fill="url(#uuunion-grad2)" filter="url(#uuunion-blur)"></path><path d="M802.68 405.39Q812.71 402.73 822.75 399.98 832.78 397.24 842.81 394.57 852.84 392.07 862.87 389.81 873.75 394.44 866.88 415.85 860.76 430.65 856.96 445.46 855.93 460.27 857.8 475.07 862.34 489.88 869.01 504.69 877 519.49 885.36 534.3 893.06 549.11 899.2 563.91 903.02 578.72 904.07 593.53 902.21 608.33 897.69 623.14 891.03 637.95 883.04 652.75 874.68 667.56 866.97 682.37 860.82 697.17 856.99 711.98 855.92 726.78 857.76 741.59 862.27 756.4 868.92 771.2 876.9 786.01 885.26 800.82 892.98 815.62 899.14 830.43 902.99 845.24 904.07 860.04 889.94 863.39 875.82 867.66 861.69 872.63 847.56 878 833.44 883.5 819.31 888.79 805.18 893.59 791.06 897.63 776.93 900.68 762.8 902.57 748.68 903.19 734.55 902.52 720.42 900.58 706.3 897.49 692.17 893.41 678.05 888.59 663.92 883.28 649.79 877.79 635.67 872.42 621.54 867.48 607.41 863.24 593.29 859.93 579.16 857.76 565.03 856.83 550.91 857.19 536.78 858.84 522.65 861.67 508.53 865.53 494.4 870.21 480.27 875.42 466.15 880.9 452.02 886.33 437.89 891.4 423.77 895.83 409.64 899.37 395.51 901.83 381.39 903.06 367.26 903 353.13 901.65 339.01 899.09 324.88 895.45 310.75 890.95 296.63 885.84 282.5 880.39 268.37 874.93 254.25 869.75 240.12 865.14 225.99 861.37 211.87 858.64 197.74 857.11 183.61 856.86 169.49 857.91 155.36 860.19 141.23 863.59 127.11 867.91 112.98 872.9 98.85 878.3 84.73 883.78 70.6 889.06 56.47 893.83 42.35 897.82 28.22 900.81 7.02 897.84 -0.11 882.89 -0.22 872.74 -0.38 862.59 -0.57 852.44 -0.78 842.29 -0.87 827.07 -0.24 822 11.99 815.14 24.15 807.31 36.25 798.58 48.29 789.07 60.31 778.94 72.33 768.37 84.35 757.57 96.42 746.75 108.54 736.12 120.75 725.88 133.06 716.2 145.48 707.26 158.04 699.15 170.75 691.97 183.61 685.74 196.62 680.45 209.78 676.06 223.08 672.46 236.52 669.54 250.07 667.12 263.72 665.03 277.43 663.07 291.18 661.05 304.95 658.76 318.68 656.04 332.36 652.71 345.94 648.65 359.39 643.77 372.68 638.02 385.78 631.36 398.66 623.85 411.3 615.53 423.69 606.52 435.81 596.95 447.66 586.97 459.24 576.77 470.56 566.52 481.63 556.42 492.48 546.64 503.14 537.33 513.64 528.64 524.01 520.67 534.32 513.5 544.6 507.15 554.9 501.62 565.28 496.88 575.79 492.84 586.48 489.39 597.4 486.41 608.59 483.72 620.1 481.17 631.96 478.59 644.19 475.8 656.81 472.64 669.84 468.99 683.28 464.72 697.12 459.74 711.35 454.02 725.93 447.53 740.83 440.29 756.01 432.36 771.42 423.82 787 414.79 802.68 405.39 802.68 405.39 802.68 405.39" fill="url(#uuunion-grad3)" filter="url(#uuunion-blur2)"></path></svg>