<svg id="visual" viewBox="0 0 900 600" width="900" height="600" xmlns="http://www.w3.org/2000/svg" xmlns:xlink="http://www.w3.org/1999/xlink" version="1.1"><path d="M0 31L37.5 29C75 27 150 23 225 21C300 19 375 19 450 32C525 45 600 71 675 80C750 89 825 81 862.5 77L900 73L900 0L862.5 0C825 0 750 0 675 0C600 0 525 0 450 0C375 0 300 0 225 0C150 0 75 0 37.5 0L0 0Z" fill="#3f37c9"></path><path d="M0 115L37.5 140C75 165 150 215 225 259C300 303 375 341 450 328C525 315 600 251 675 250C750 249 825 311 862.5 342L900 373L900 71L862.5 75C825 79 750 87 675 78C600 69 525 43 450 30C375 17 300 17 225 19C150 21 75 25 37.5 27L0 29Z" fill="#4531c3"></path><path d="M0 217L37.5 254C75 291 150 365 225 397C300 429 375 419 450 385C525 351 600 293 675 302C750 311 825 387 862.5 425L900 463L900 371L862.5 340C825 309 750 247 675 248C600 249 525 313 450 326C375 339 300 301 225 257C150 213 75 163 37.5 138L0 113Z" fill="#4a2abe"></path><path d="M0 349L37.5 369C75 389 150 429 225 443C300 457 375 445 450 425C525 405 600 377 675 385C750 393 825 437 862.5 459L900 481L900 461L862.5 423C825 385 750 309 675 300C600 291 525 349 450 383C375 417 300 427 225 395C150 363 75 289 37.5 252L0 215Z" fill="#4e22b8"></path><path d="M0 457L37.5 473C75 489 150 521 225 535C300 549 375 545 450 527C525 509 600 477 675 480C750 483 825 521 862.5 540L900 559L900 479L862.5 457C825 435 750 391 675 383C600 375 525 403 450 423C375 443 300 455 225 441C150 427 75 387 37.5 367L0 347Z" fill="#5218b3"></path><path d="M0 601L37.5 601C75 601 150 601 225 601C300 601 375 601 450 601C525 601 600 601 675 601C750 601 825 601 862.5 601L900 601L900 557L862.5 538C825 519 750 481 675 478C600 475 525 507 450 525C375 543 300 547 225 533C150 519 75 487 37.5 471L0 455Z" fill="#560bad"></path></svg>