<svg id="visual" viewBox="0 0 1800 600" width="1800" height="600" xmlns="http://www.w3.org/2000/svg" xmlns:xlink="http://www.w3.org/1999/xlink" version="1.1"><rect x="0" y="0" width="1800" height="600" fill="#ade8f4"></rect><path d="M0 270L33.3 267C66.7 264 133.3 258 200 252.5C266.7 247 333.3 242 400 244C466.7 246 533.3 255 600 251C666.7 247 733.3 230 800 227.5C866.7 225 933.3 237 1000 246C1066.7 255 1133.3 261 1200 271.5C1266.7 282 1333.3 297 1400 289.2C1466.7 281.3 1533.3 250.7 1600 249.7C1666.7 248.7 1733.3 277.3 1766.7 291.7L1800 306L1800 0L1766.7 0C1733.3 0 1666.7 0 1600 0C1533.3 0 1466.7 0 1400 0C1333.3 0 1266.7 0 1200 0C1133.3 0 1066.7 0 1000 0C933.3 0 866.7 0 800 0C733.3 0 666.7 0 600 0C533.3 0 466.7 0 400 0C333.3 0 266.7 0 200 0C133.3 0 66.7 0 33.3 0L0 0Z" fill="#90e0ef"></path><path d="M0 210L33.3 221.2C66.7 232.3 133.3 254.7 200 251.3C266.7 248 333.3 219 400 208.2C466.7 197.3 533.3 204.7 600 220.8C666.7 237 733.3 262 800 273.7C866.7 285.3 933.3 283.7 1000 280.3C1066.7 277 1133.3 272 1200 270.3C1266.7 268.7 1333.3 270.3 1400 258.7C1466.7 247 1533.3 222 1600 209.5C1666.7 197 1733.3 197 1766.7 197L1800 197L1800 0L1766.7 0C1733.3 0 1666.7 0 1600 0C1533.3 0 1466.7 0 1400 0C1333.3 0 1266.7 0 1200 0C1133.3 0 1066.7 0 1000 0C933.3 0 866.7 0 800 0C733.3 0 666.7 0 600 0C533.3 0 466.7 0 400 0C333.3 0 266.7 0 200 0C133.3 0 66.7 0 33.3 0L0 0Z" fill="#47abd4"></path><path d="M0 208L33.3 195C66.7 182 133.3 156 200 154.7C266.7 153.3 333.3 176.7 400 178.3C466.7 180 533.3 160 600 149C666.7 138 733.3 136 800 146.5C866.7 157 933.3 180 1000 180.5C1066.7 181 1133.3 159 1200 161.7C1266.7 164.3 1333.3 191.7 1400 194.2C1466.7 196.7 1533.3 174.3 1600 170.5C1666.7 166.7 1733.3 181.3 1766.7 188.7L1800 196L1800 0L1766.7 0C1733.3 0 1666.7 0 1600 0C1533.3 0 1466.7 0 1400 0C1333.3 0 1266.7 0 1200 0C1133.3 0 1066.7 0 1000 0C933.3 0 866.7 0 800 0C733.3 0 666.7 0 600 0C533.3 0 466.7 0 400 0C333.3 0 266.7 0 200 0C133.3 0 66.7 0 33.3 0L0 0Z" fill="#0076b6"></path><path d="M0 126L33.3 129.7C66.7 133.3 133.3 140.7 200 137C266.7 133.3 333.3 118.7 400 108.8C466.7 99 533.3 94 600 103C666.7 112 733.3 135 800 135.5C866.7 136 933.3 114 1000 115C1066.7 116 1133.3 140 1200 145C1266.7 150 1333.3 136 1400 133.8C1466.7 131.7 1533.3 141.3 1600 135.2C1666.7 129 1733.3 107 1766.7 96L1800 85L1800 0L1766.7 0C1733.3 0 1666.7 0 1600 0C1533.3 0 1466.7 0 1400 0C1333.3 0 1266.7 0 1200 0C1133.3 0 1066.7 0 1000 0C933.3 0 866.7 0 800 0C733.3 0 666.7 0 600 0C533.3 0 466.7 0 400 0C333.3 0 266.7 0 200 0C133.3 0 66.7 0 33.3 0L0 0Z" fill="#00408f"></path><path d="M0 86L33.3 86.8C66.7 87.7 133.3 89.3 200 88.8C266.7 88.3 333.3 85.7 400 78.7C466.7 71.7 533.3 60.3 600 58.2C666.7 56 733.3 63 800 71.7C866.7 80.3 933.3 90.7 1000 94.5C1066.7 98.3 1133.3 95.7 1200 85.2C1266.7 74.7 1333.3 56.3 1400 56.2C1466.7 56 1533.3 74 1600 75.7C1666.7 77.3 1733.3 62.7 1766.7 55.3L1800 48L1800 0L1766.7 0C1733.3 0 1666.7 0 1600 0C1533.3 0 1466.7 0 1400 0C1333.3 0 1266.7 0 1200 0C1133.3 0 1066.7 0 1000 0C933.3 0 866.7 0 800 0C733.3 0 666.7 0 600 0C533.3 0 466.7 0 400 0C333.3 0 266.7 0 200 0C133.3 0 66.7 0 33.3 0L0 0Z" fill="#03045e"></path></svg>