<svg id="visual" viewBox="0 0 900 200" width="900" height="200" xmlns="http://www.w3.org/2000/svg" xmlns:xlink="http://www.w3.org/1999/xlink" version="1.1"><path d="M0 132L21.5 132.3C43 132.7 86 133.3 128.8 120.2C171.7 107 214.3 80 257.2 67.8C300 55.7 343 58.3 385.8 66.3C428.7 74.3 471.3 87.7 514.2 101.2C557 114.7 600 128.3 642.8 129.5C685.7 130.7 728.3 119.3 771.2 105.8C814 92.3 857 76.7 878.5 68.8L900 61L900 201L878.5 201C857 201 814 201 771.2 201C728.3 201 685.7 201 642.8 201C600 201 557 201 514.2 201C471.3 201 428.7 201 385.8 201C343 201 300 201 257.2 201C214.3 201 171.7 201 128.8 201C86 201 43 201 21.5 201L0 201Z" fill="#080f0f" stroke-linecap="round" stroke-linejoin="miter"></path></svg>