<svg id="visual" viewBox="0 0 900 200" width="900" height="200" xmlns="http://www.w3.org/2000/svg" xmlns:xlink="http://www.w3.org/1999/xlink" version="1.1"><path d="M0 127L10 127.3C20 127.7 40 128.3 60 131.3C80 134.3 100 139.7 120 138.3C140 137 160 129 180 125.5C200 122 220 123 240 125.2C260 127.3 280 130.7 300 132.3C320 134 340 134 360 132.7C380 131.3 400 128.7 420 126C440 123.3 460 120.7 480 121.7C500 122.7 520 127.3 540 130.7C560 134 580 136 600 134C620 132 640 126 660 124C680 122 700 124 720 123.2C740 122.3 760 118.7 780 117.7C800 116.7 820 118.3 840 119.7C860 121 880 122 890 122.5L900 123L900 0L890 0C880 0 860 0 840 0C820 0 800 0 780 0C760 0 740 0 720 0C700 0 680 0 660 0C640 0 620 0 600 0C580 0 560 0 540 0C520 0 500 0 480 0C460 0 440 0 420 0C400 0 380 0 360 0C340 0 320 0 300 0C280 0 260 0 240 0C220 0 200 0 180 0C160 0 140 0 120 0C100 0 80 0 60 0C40 0 20 0 10 0L0 0Z" fill="#3f37c9"></path><path d="M0 114L10 111.3C20 108.7 40 103.3 60 100.8C80 98.3 100 98.7 120 101.3C140 104 160 109 180 108.5C200 108 220 102 240 99.7C260 97.3 280 98.7 300 101.5C320 104.3 340 108.7 360 113.3C380 118 400 123 420 120.3C440 117.7 460 107.3 480 105.2C500 103 520 109 540 110.2C560 111.3 580 107.7 600 107.3C620 107 640 110 660 111.3C680 112.7 700 112.3 720 110.3C740 108.3 760 104.7 780 102.8C800 101 820 101 840 105.3C860 109.7 880 118.3 890 122.7L900 127L900 0L890 0C880 0 860 0 840 0C820 0 800 0 780 0C760 0 740 0 720 0C700 0 680 0 660 0C640 0 620 0 600 0C580 0 560 0 540 0C520 0 500 0 480 0C460 0 440 0 420 0C400 0 380 0 360 0C340 0 320 0 300 0C280 0 260 0 240 0C220 0 200 0 180 0C160 0 140 0 120 0C100 0 80 0 60 0C40 0 20 0 10 0L0 0Z" fill="#5534c5"></path><path d="M0 90L10 91.7C20 93.3 40 96.7 60 100.2C80 103.7 100 107.3 120 108.2C140 109 160 107 180 103.2C200 99.3 220 93.7 240 95C260 96.3 280 104.7 300 107.2C320 109.7 340 106.3 360 102.2C380 98 400 93 420 93C440 93 460 98 480 97.7C500 97.3 520 91.7 540 92.8C560 94 580 102 600 103.3C620 104.7 640 99.3 660 98C680 96.7 700 99.3 720 101.7C740 104 760 106 780 108C800 110 820 112 840 112.8C860 113.7 880 113.3 890 113.2L900 113L900 0L890 0C880 0 860 0 840 0C820 0 800 0 780 0C760 0 740 0 720 0C700 0 680 0 660 0C640 0 620 0 600 0C580 0 560 0 540 0C520 0 500 0 480 0C460 0 440 0 420 0C400 0 380 0 360 0C340 0 320 0 300 0C280 0 260 0 240 0C220 0 200 0 180 0C160 0 140 0 120 0C100 0 80 0 60 0C40 0 20 0 10 0L0 0Z" fill="#6631c2"></path><path d="M0 98L10 95.2C20 92.3 40 86.7 60 86.2C80 85.7 100 90.3 120 90C140 89.7 160 84.3 180 83.2C200 82 220 85 240 86.5C260 88 280 88 300 88.8C320 89.7 340 91.3 360 91.2C380 91 400 89 420 89C440 89 460 91 480 90.7C500 90.3 520 87.7 540 86.3C560 85 580 85 600 83.8C620 82.7 640 80.3 660 79.5C680 78.7 700 79.3 720 81.5C740 83.7 760 87.3 780 91.2C800 95 820 99 840 100.3C860 101.7 880 100.3 890 99.7L900 99L900 0L890 0C880 0 860 0 840 0C820 0 800 0 780 0C760 0 740 0 720 0C700 0 680 0 660 0C640 0 620 0 600 0C580 0 560 0 540 0C520 0 500 0 480 0C460 0 440 0 420 0C400 0 380 0 360 0C340 0 320 0 300 0C280 0 260 0 240 0C220 0 200 0 180 0C160 0 140 0 120 0C100 0 80 0 60 0C40 0 20 0 10 0L0 0Z" fill="#752dbe"></path><path d="M0 81L10 82.8C20 84.7 40 88.3 60 89.7C80 91 100 90 120 86.7C140 83.3 160 77.7 180 77.2C200 76.7 220 81.3 240 82.7C260 84 280 82 300 80.3C320 78.7 340 77.3 360 78.2C380 79 400 82 420 80.7C440 79.3 460 73.7 480 75C500 76.3 520 84.7 540 89.3C560 94 580 95 600 94.2C620 93.3 640 90.7 660 86.2C680 81.7 700 75.3 720 74.8C740 74.3 760 79.7 780 81C800 82.3 820 79.7 840 80.3C860 81 880 85 890 87L900 89L900 0L890 0C880 0 860 0 840 0C820 0 800 0 780 0C760 0 740 0 720 0C700 0 680 0 660 0C640 0 620 0 600 0C580 0 560 0 540 0C520 0 500 0 480 0C460 0 440 0 420 0C400 0 380 0 360 0C340 0 320 0 300 0C280 0 260 0 240 0C220 0 200 0 180 0C160 0 140 0 120 0C100 0 80 0 60 0C40 0 20 0 10 0L0 0Z" fill="#812ab9"></path><path d="M0 78L10 75C20 72 40 66 60 65.7C80 65.3 100 70.7 120 73.5C140 76.3 160 76.7 180 77.7C200 78.7 220 80.3 240 78.8C260 77.3 280 72.7 300 71.8C320 71 340 74 360 74.5C380 75 400 73 420 73.3C440 73.7 460 76.3 480 75.2C500 74 520 69 540 68.2C560 67.3 580 70.7 600 72C620 73.3 640 72.7 660 72.8C680 73 700 74 720 74.2C740 74.3 760 73.7 780 70.8C800 68 820 63 840 61.7C860 60.3 880 62.7 890 63.8L900 65L900 0L890 0C880 0 860 0 840 0C820 0 800 0 780 0C760 0 740 0 720 0C700 0 680 0 660 0C640 0 620 0 600 0C580 0 560 0 540 0C520 0 500 0 480 0C460 0 440 0 420 0C400 0 380 0 360 0C340 0 320 0 300 0C280 0 260 0 240 0C220 0 200 0 180 0C160 0 140 0 120 0C100 0 80 0 60 0C40 0 20 0 10 0L0 0Z" fill="#8c26b5"></path><path d="M0 49L10 52.2C20 55.3 40 61.7 60 61.3C80 61 100 54 120 53.2C140 52.3 160 57.7 180 57.8C200 58 220 53 240 52.8C260 52.7 280 57.3 300 59.7C320 62 340 62 360 62.8C380 63.7 400 65.3 420 64.7C440 64 460 61 480 60.5C500 60 520 62 540 61.5C560 61 580 58 600 58.7C620 59.3 640 63.7 660 62.5C680 61.3 700 54.7 720 52.2C740 49.7 760 51.3 780 51.7C800 52 820 51 840 52.5C860 54 880 58 890 60L900 62L900 0L890 0C880 0 860 0 840 0C820 0 800 0 780 0C760 0 740 0 720 0C700 0 680 0 660 0C640 0 620 0 600 0C580 0 560 0 540 0C520 0 500 0 480 0C460 0 440 0 420 0C400 0 380 0 360 0C340 0 320 0 300 0C280 0 260 0 240 0C220 0 200 0 180 0C160 0 140 0 120 0C100 0 80 0 60 0C40 0 20 0 10 0L0 0Z" fill="#9622b1"></path><path d="M0 39L10 41.8C20 44.7 40 50.3 60 52.3C80 54.3 100 52.7 120 52.5C140 52.3 160 53.7 180 51.8C200 50 220 45 240 44.8C260 44.7 280 49.3 300 50.2C320 51 340 48 360 47C380 46 400 47 420 47.7C440 48.3 460 48.7 480 47C500 45.3 520 41.7 540 42.5C560 43.3 580 48.7 600 50.7C620 52.7 640 51.3 660 49.8C680 48.3 700 46.7 720 45.8C740 45 760 45 780 45.3C800 45.7 820 46.3 840 46.5C860 46.7 880 46.3 890 46.2L900 46L900 0L890 0C880 0 860 0 840 0C820 0 800 0 780 0C760 0 740 0 720 0C700 0 680 0 660 0C640 0 620 0 600 0C580 0 560 0 540 0C520 0 500 0 480 0C460 0 440 0 420 0C400 0 380 0 360 0C340 0 320 0 300 0C280 0 260 0 240 0C220 0 200 0 180 0C160 0 140 0 120 0C100 0 80 0 60 0C40 0 20 0 10 0L0 0Z" fill="#9f1fac"></path><path d="M0 33L10 32.2C20 31.3 40 29.7 60 28.8C80 28 100 28 120 30.8C140 33.7 160 39.3 180 42C200 44.7 220 44.3 240 42.7C260 41 280 38 300 36.5C320 35 340 35 360 35.7C380 36.3 400 37.7 420 36.5C440 35.3 460 31.7 480 32.5C500 33.3 520 38.7 540 41C560 43.3 580 42.7 600 41.3C620 40 640 38 660 35.7C680 33.3 700 30.7 720 30.2C740 29.7 760 31.3 780 32.5C800 33.7 820 34.3 840 33.7C860 33 880 31 890 30L900 29L900 0L890 0C880 0 860 0 840 0C820 0 800 0 780 0C760 0 740 0 720 0C700 0 680 0 660 0C640 0 620 0 600 0C580 0 560 0 540 0C520 0 500 0 480 0C460 0 440 0 420 0C400 0 380 0 360 0C340 0 320 0 300 0C280 0 260 0 240 0C220 0 200 0 180 0C160 0 140 0 120 0C100 0 80 0 60 0C40 0 20 0 10 0L0 0Z" fill="#a71ca7"></path><path d="M0 27L10 27.8C20 28.7 40 30.3 60 29.8C80 29.3 100 26.7 120 25.7C140 24.7 160 25.3 180 26.3C200 27.3 220 28.7 240 28.3C260 28 280 26 300 25.5C320 25 340 26 360 27C380 28 400 29 420 28.2C440 27.3 460 24.7 480 22.7C500 20.7 520 19.3 540 20.8C560 22.3 580 26.7 600 26.7C620 26.7 640 22.3 660 21C680 19.7 700 21.3 720 22C740 22.7 760 22.3 780 23.8C800 25.3 820 28.7 840 28.7C860 28.7 880 25.3 890 23.7L900 22L900 0L890 0C880 0 860 0 840 0C820 0 800 0 780 0C760 0 740 0 720 0C700 0 680 0 660 0C640 0 620 0 600 0C580 0 560 0 540 0C520 0 500 0 480 0C460 0 440 0 420 0C400 0 380 0 360 0C340 0 320 0 300 0C280 0 260 0 240 0C220 0 200 0 180 0C160 0 140 0 120 0C100 0 80 0 60 0C40 0 20 0 10 0L0 0Z" fill="#ae19a3"></path><path d="M0 11L10 11.5C20 12 40 13 60 14.2C80 15.3 100 16.7 120 16C140 15.3 160 12.7 180 12.5C200 12.3 220 14.7 240 15.2C260 15.7 280 14.3 300 13.2C320 12 340 11 360 11.8C380 12.7 400 15.3 420 16.8C440 18.3 460 18.7 480 17.7C500 16.7 520 14.3 540 12.5C560 10.7 580 9.3 600 10.2C620 11 640 14 660 15C680 16 700 15 720 15.2C740 15.3 760 16.7 780 16.3C800 16 820 14 840 12.8C860 11.7 880 11.3 890 11.2L900 11L900 0L890 0C880 0 860 0 840 0C820 0 800 0 780 0C760 0 740 0 720 0C700 0 680 0 660 0C640 0 620 0 600 0C580 0 560 0 540 0C520 0 500 0 480 0C460 0 440 0 420 0C400 0 380 0 360 0C340 0 320 0 300 0C280 0 260 0 240 0C220 0 200 0 180 0C160 0 140 0 120 0C100 0 80 0 60 0C40 0 20 0 10 0L0 0Z" fill="#b5179e"></path></svg>