<svg id="visual" viewBox="0 0 1800 600" width="1800" height="600" xmlns="http://www.w3.org/2000/svg" xmlns:xlink="http://www.w3.org/1999/xlink" version="1.1"><rect x="0" y="0" width="1800" height="600" fill="#caf0f8"></rect><path d="M0 345L42.8 338.2C85.7 331.3 171.3 317.7 257 329.2C342.7 340.7 428.3 377.3 514 386.2C599.7 395 685.3 376 771.2 358C857 340 943 323 1028.8 316C1114.7 309 1200.3 312 1286 321C1371.7 330 1457.3 345 1543 343.2C1628.7 341.3 1714.3 322.7 1757.2 313.3L1800 304L1800 601L1757.2 601C1714.3 601 1628.7 601 1543 601C1457.3 601 1371.7 601 1286 601C1200.3 601 1114.7 601 1028.8 601C943 601 857 601 771.2 601C685.3 601 599.7 601 514 601C428.3 601 342.7 601 257 601C171.3 601 85.7 601 42.8 601L0 601Z" fill="#00b4d8"></path><path d="M0 434L42.8 430.5C85.7 427 171.3 420 257 414.7C342.7 409.3 428.3 405.7 514 412.3C599.7 419 685.3 436 771.2 441.8C857 447.7 943 442.3 1028.8 425.7C1114.7 409 1200.3 381 1286 368C1371.7 355 1457.3 357 1543 357C1628.7 357 1714.3 355 1757.2 354L1800 353L1800 601L1757.2 601C1714.3 601 1628.7 601 1543 601C1457.3 601 1371.7 601 1286 601C1200.3 601 1114.7 601 1028.8 601C943 601 857 601 771.2 601C685.3 601 599.7 601 514 601C428.3 601 342.7 601 257 601C171.3 601 85.7 601 42.8 601L0 601Z" fill="#008bc7"></path><path d="M0 444L42.8 445C85.7 446 171.3 448 257 454.2C342.7 460.3 428.3 470.7 514 476.7C599.7 482.7 685.3 484.3 771.2 486C857 487.7 943 489.3 1028.8 479.7C1114.7 470 1200.3 449 1286 446.5C1371.7 444 1457.3 460 1543 470.2C1628.7 480.3 1714.3 484.7 1757.2 486.8L1800 489L1800 601L1757.2 601C1714.3 601 1628.7 601 1543 601C1457.3 601 1371.7 601 1286 601C1200.3 601 1114.7 601 1028.8 601C943 601 857 601 771.2 601C685.3 601 599.7 601 514 601C428.3 601 342.7 601 257 601C171.3 601 85.7 601 42.8 601L0 601Z" fill="#0060ab"></path><path d="M0 480L42.8 486.8C85.7 493.7 171.3 507.3 257 507.3C342.7 507.3 428.3 493.7 514 487C599.7 480.3 685.3 480.7 771.2 487.7C857 494.7 943 508.3 1028.8 509.8C1114.7 511.3 1200.3 500.7 1286 498.2C1371.7 495.7 1457.3 501.3 1543 499.2C1628.7 497 1714.3 487 1757.2 482L1800 477L1800 601L1757.2 601C1714.3 601 1628.7 601 1543 601C1457.3 601 1371.7 601 1286 601C1200.3 601 1114.7 601 1028.8 601C943 601 857 601 771.2 601C685.3 601 599.7 601 514 601C428.3 601 342.7 601 257 601C171.3 601 85.7 601 42.8 601L0 601Z" fill="#003487"></path><path d="M0 547L42.8 541C85.7 535 171.3 523 257 525.7C342.7 528.3 428.3 545.7 514 553.7C599.7 561.7 685.3 560.3 771.2 555.7C857 551 943 543 1028.8 541.2C1114.7 539.3 1200.3 543.7 1286 543.8C1371.7 544 1457.3 540 1543 535C1628.7 530 1714.3 524 1757.2 521L1800 518L1800 601L1757.2 601C1714.3 601 1628.7 601 1543 601C1457.3 601 1371.7 601 1286 601C1200.3 601 1114.7 601 1028.8 601C943 601 857 601 771.2 601C685.3 601 599.7 601 514 601C428.3 601 342.7 601 257 601C171.3 601 85.7 601 42.8 601L0 601Z" fill="#03045e"></path></svg>